solid SIM_ICUB3_R_UPPERARM
  facet normal -8.838927e-01 -4.535231e-01 -1.142387e-01
    outer loop
      vertex 1.272674e+02 -2.361554e+01 -1.893539e+02
      vertex 1.186613e+02 -8.773651e+00 -1.816886e+02
      vertex 1.273308e+02 -2.313481e+01 -1.917530e+02
    endloop
  endfacet
  facet normal -8.958720e-01 -3.422542e-01 -2.833292e-01
    outer loop
      vertex 1.260273e+02 -1.773729e+01 -1.941514e+02
      vertex 1.273308e+02 -2.313481e+01 -1.917530e+02
      vertex 1.186613e+02 -8.773651e+00 -1.816886e+02
    endloop
  endfacet
  facet normal 3.184377e-02 -9.801742e-01 -1.955623e-01
    outer loop
      vertex 1.406440e+02 -2.639519e+01 -1.732439e+02
      vertex 1.272674e+02 -2.361554e+01 -1.893539e+02
      vertex 1.273308e+02 -2.313481e+01 -1.917530e+02
    endloop
  endfacet
  facet normal -2.377378e-01 -4.417896e-01 -8.650449e-01
    outer loop
      vertex 1.331019e+02 -1.769923e+01 -1.961151e+02
      vertex 1.273308e+02 -2.313481e+01 -1.917530e+02
      vertex 1.260273e+02 -1.773729e+01 -1.941514e+02
    endloop
  endfacet
  facet normal -2.074392e-01 -9.779760e-01 -2.306433e-02
    outer loop
      vertex 1.413799e+02 -2.606562e+01 -1.938376e+02
      vertex 1.406440e+02 -2.639519e+01 -1.732439e+02
      vertex 1.273308e+02 -2.313481e+01 -1.917530e+02
    endloop
  endfacet
  facet normal -2.228652e-01 -4.551818e-01 -8.620561e-01
    outer loop
      vertex 1.331019e+02 -1.769923e+01 -1.961151e+02
      vertex 1.413799e+02 -2.606562e+01 -1.938376e+02
      vertex 1.273308e+02 -2.313481e+01 -1.917530e+02
    endloop
  endfacet
  facet normal -7.076773e-01 -6.016517e-01 3.704160e-01
    outer loop
      vertex 1.306454e+02 -1.951339e+01 -1.762373e+02
      vertex 1.186613e+02 -8.773651e+00 -1.816886e+02
      vertex 1.272674e+02 -2.361554e+01 -1.893539e+02
    endloop
  endfacet
  facet normal -9.006354e-01 -2.896161e-01 -3.240037e-01
    outer loop
      vertex 1.109894e+02 8.382973e+00 -1.756986e+02
      vertex 1.260273e+02 -1.773729e+01 -1.941514e+02
      vertex 1.186613e+02 -8.773651e+00 -1.816886e+02
    endloop
  endfacet
  facet normal -6.321941e-01 -7.656698e-01 -1.186609e-01
    outer loop
      vertex 1.284259e+02 -2.227402e+01 -1.465991e+02
      vertex 1.186613e+02 -8.773651e+00 -1.816886e+02
      vertex 1.306454e+02 -1.951339e+01 -1.762373e+02
    endloop
  endfacet
  facet normal -7.657220e-01 -6.422710e-01 -3.402660e-02
    outer loop
      vertex 1.284259e+02 -2.227402e+01 -1.465991e+02
      vertex 1.189881e+02 -1.113194e+01 -1.445287e+02
      vertex 1.186613e+02 -8.773651e+00 -1.816886e+02
    endloop
  endfacet
  facet normal -9.305941e-01 -3.657442e-01 -1.502734e-02
    outer loop
      vertex 1.111694e+02 8.808690e+00 -1.456685e+02
      vertex 1.186613e+02 -8.773651e+00 -1.816886e+02
      vertex 1.189881e+02 -1.113194e+01 -1.445287e+02
    endloop
  endfacet
  facet normal -9.113524e-01 -4.114721e-01 1.129575e-02
    outer loop
      vertex 1.111694e+02 8.808690e+00 -1.456685e+02
      vertex 1.109894e+02 8.382973e+00 -1.756986e+02
      vertex 1.186613e+02 -8.773651e+00 -1.816886e+02
    endloop
  endfacet
  facet normal -5.991270e-01 -7.071619e-01 3.754582e-01
    outer loop
      vertex 1.306454e+02 -1.951339e+01 -1.762373e+02
      vertex 1.272674e+02 -2.361554e+01 -1.893539e+02
      vertex 1.406440e+02 -2.639519e+01 -1.732439e+02
    endloop
  endfacet
  facet normal -2.662296e-01 -7.908813e-02 -9.606596e-01
    outer loop
      vertex 1.243737e+02 1.372399e+01 -1.962832e+02
      vertex 1.331019e+02 -1.769923e+01 -1.961151e+02
      vertex 1.260273e+02 -1.773729e+01 -1.941514e+02
    endloop
  endfacet
  facet normal -9.033540e-01 -3.126869e-01 -2.935618e-01
    outer loop
      vertex 1.159109e+02 6.237350e+00 -1.885575e+02
      vertex 1.260273e+02 -1.773729e+01 -1.941514e+02
      vertex 1.109894e+02 8.382973e+00 -1.756986e+02
    endloop
  endfacet
  facet normal -6.294734e-01 -8.541665e-02 -7.723129e-01
    outer loop
      vertex 1.243737e+02 1.372399e+01 -1.962832e+02
      vertex 1.260273e+02 -1.773729e+01 -1.941514e+02
      vertex 1.159109e+02 6.237350e+00 -1.885575e+02
    endloop
  endfacet
  facet normal -2.889669e-01 -9.569956e-01 -2.564210e-02
    outer loop
      vertex 1.559698e+02 -3.098730e+01 -1.745707e+02
      vertex 1.406440e+02 -2.639519e+01 -1.732439e+02
      vertex 1.413799e+02 -2.606562e+01 -1.938376e+02
    endloop
  endfacet
  facet normal -5.387781e-01 -8.341367e-01 -1.180426e-01
    outer loop
      vertex 1.284259e+02 -2.227402e+01 -1.465991e+02
      vertex 1.306454e+02 -1.951339e+01 -1.762373e+02
      vertex 1.406440e+02 -2.639519e+01 -1.732439e+02
    endloop
  endfacet
  facet normal -5.391839e-01 -8.338417e-01 -1.182743e-01
    outer loop
      vertex 1.284259e+02 -2.227402e+01 -1.465991e+02
      vertex 1.406440e+02 -2.639519e+01 -1.732439e+02
      vertex 1.383149e+02 -2.900673e+01 -1.442149e+02
    endloop
  endfacet
  facet normal -2.482456e-01 -9.628210e-01 -1.065353e-01
    outer loop
      vertex 1.569415e+02 -3.368737e+01 -1.453163e+02
      vertex 1.383149e+02 -2.900673e+01 -1.442149e+02
      vertex 1.406440e+02 -2.639519e+01 -1.732439e+02
    endloop
  endfacet
  facet normal -2.923554e-01 -9.531024e-01 -7.825686e-02
    outer loop
      vertex 1.569415e+02 -3.368737e+01 -1.453163e+02
      vertex 1.406440e+02 -2.639519e+01 -1.732439e+02
      vertex 1.559698e+02 -3.098730e+01 -1.745707e+02
    endloop
  endfacet
  facet normal -2.445058e-01 -4.724331e-01 -8.467726e-01
    outer loop
      vertex 1.571261e+02 -2.341835e+01 -1.998613e+02
      vertex 1.413799e+02 -2.606562e+01 -1.938376e+02
      vertex 1.331019e+02 -1.769923e+01 -1.961151e+02
    endloop
  endfacet
  facet normal -2.636540e-01 -9.634973e-01 -4.647116e-02
    outer loop
      vertex 1.572418e+02 -3.032433e+01 -1.955332e+02
      vertex 1.559698e+02 -3.098730e+01 -1.745707e+02
      vertex 1.413799e+02 -2.606562e+01 -1.938376e+02
    endloop
  endfacet
  facet normal -2.275889e-01 -5.198435e-01 -8.233869e-01
    outer loop
      vertex 1.571261e+02 -2.341835e+01 -1.998613e+02
      vertex 1.572418e+02 -3.032433e+01 -1.955332e+02
      vertex 1.413799e+02 -2.606562e+01 -1.938376e+02
    endloop
  endfacet
  facet normal 7.814102e-03 -3.179133e-03 -9.999644e-01
    outer loop
      vertex 1.591096e+02 -4.934422e+00 -1.959525e+02
      vertex 1.331019e+02 -1.769923e+01 -1.961151e+02
      vertex 1.243737e+02 1.372399e+01 -1.962832e+02
    endloop
  endfacet
  facet normal -9.999853e-02 2.161178e-01 -9.712329e-01
    outer loop
      vertex 1.591096e+02 -4.934422e+00 -1.959525e+02
      vertex 1.571261e+02 -2.341835e+01 -1.998613e+02
      vertex 1.331019e+02 -1.769923e+01 -1.961151e+02
    endloop
  endfacet
  facet normal -7.822948e-01 -6.157334e-01 -9.427227e-02
    outer loop
      vertex 1.257510e+02 -2.422369e+01 -1.137739e+02
      vertex 1.168061e+02 -1.265227e+01 -1.151246e+02
      vertex 1.275639e+02 -2.213601e+01 -1.424534e+02
    endloop
  endfacet
  facet normal -7.772778e-01 -6.227048e-01 -8.987811e-02
    outer loop
      vertex 1.189881e+02 -1.113194e+01 -1.445287e+02
      vertex 1.275639e+02 -2.213601e+01 -1.424534e+02
      vertex 1.168061e+02 -1.265227e+01 -1.151246e+02
    endloop
  endfacet
  facet normal -5.428471e-01 -8.344348e-01 -9.505611e-02
    outer loop
      vertex 1.368777e+02 -3.131143e+01 -1.150975e+02
      vertex 1.257510e+02 -2.422369e+01 -1.137739e+02
      vertex 1.275639e+02 -2.213601e+01 -1.424534e+02
    endloop
  endfacet
  facet normal -7.682373e-01 -6.249091e-01 -1.389248e-01
    outer loop
      vertex 1.284259e+02 -2.227402e+01 -1.465991e+02
      vertex 1.275639e+02 -2.213601e+01 -1.424534e+02
      vertex 1.189881e+02 -1.113194e+01 -1.445287e+02
    endloop
  endfacet
  facet normal -5.469323e-01 -8.320117e-01 -9.285248e-02
    outer loop
      vertex 1.383149e+02 -2.900673e+01 -1.442149e+02
      vertex 1.368777e+02 -3.131143e+01 -1.150975e+02
      vertex 1.275639e+02 -2.213601e+01 -1.424534e+02
    endloop
  endfacet
  facet normal -5.464649e-01 -8.330665e-01 -8.588572e-02
    outer loop
      vertex 1.284259e+02 -2.227402e+01 -1.465991e+02
      vertex 1.383149e+02 -2.900673e+01 -1.442149e+02
      vertex 1.275639e+02 -2.213601e+01 -1.424534e+02
    endloop
  endfacet
  facet normal -7.858766e-01 -6.150182e-01 -6.442569e-02
    outer loop
      vertex 1.150943e+02 -1.354898e+01 -8.568426e+01
      vertex 1.168061e+02 -1.265227e+01 -1.151246e+02
      vertex 1.257510e+02 -2.422369e+01 -1.137739e+02
    endloop
  endfacet
  facet normal -9.327611e-01 -3.497639e-01 -8.730412e-02
    outer loop
      vertex 1.091527e+02 7.912684e+00 -1.157443e+02
      vertex 1.189881e+02 -1.113194e+01 -1.445287e+02
      vertex 1.168061e+02 -1.265227e+01 -1.151246e+02
    endloop
  endfacet
  facet normal -9.411359e-01 -3.317542e-01 -6.482505e-02
    outer loop
      vertex 1.075103e+02 8.024946e+00 -8.598729e+01
      vertex 1.168061e+02 -1.265227e+01 -1.151246e+02
      vertex 1.150943e+02 -1.354898e+01 -8.568426e+01
    endloop
  endfacet
  facet normal -9.355188e-01 -3.496755e-01 -5.031518e-02
    outer loop
      vertex 1.075103e+02 8.024946e+00 -8.598729e+01
      vertex 1.091527e+02 7.912684e+00 -1.157443e+02
      vertex 1.168061e+02 -1.265227e+01 -1.151246e+02
    endloop
  endfacet
  facet normal -5.414981e-01 -8.383612e-01 -6.269268e-02
    outer loop
      vertex 1.358904e+02 -3.286198e+01 -8.583478e+01
      vertex 1.257510e+02 -2.422369e+01 -1.137739e+02
      vertex 1.368777e+02 -3.131143e+01 -1.150975e+02
    endloop
  endfacet
  facet normal -7.889970e-01 -6.107056e-01 -6.724842e-02
    outer loop
      vertex 1.243186e+02 -2.553677e+01 -8.504337e+01
      vertex 1.150943e+02 -1.354898e+01 -8.568426e+01
      vertex 1.257510e+02 -2.422369e+01 -1.137739e+02
    endloop
  endfacet
  facet normal -5.369078e-01 -8.411169e-01 -6.521052e-02
    outer loop
      vertex 1.358904e+02 -3.286198e+01 -8.583478e+01
      vertex 1.243186e+02 -2.553677e+01 -8.504337e+01
      vertex 1.257510e+02 -2.422369e+01 -1.137739e+02
    endloop
  endfacet
  facet normal -9.270395e-01 -3.676920e-01 -7.348729e-02
    outer loop
      vertex 1.091527e+02 7.912684e+00 -1.157443e+02
      vertex 1.111694e+02 8.808690e+00 -1.456685e+02
      vertex 1.189881e+02 -1.113194e+01 -1.445287e+02
    endloop
  endfacet
  facet normal -2.099280e-01 -9.737989e-01 -8.744044e-02
    outer loop
      vertex 1.567809e+02 -3.555396e+01 -1.156336e+02
      vertex 1.368777e+02 -3.131143e+01 -1.150975e+02
      vertex 1.383149e+02 -2.900673e+01 -1.442149e+02
    endloop
  endfacet
  facet normal -1.675385e-01 -9.841696e-01 -5.780123e-02
    outer loop
      vertex 1.567506e+02 -3.640168e+01 -8.602920e+01
      vertex 1.358904e+02 -3.286198e+01 -8.583478e+01
      vertex 1.368777e+02 -3.131143e+01 -1.150975e+02
    endloop
  endfacet
  facet normal -2.091179e-01 -9.774836e-01 -2.820411e-02
    outer loop
      vertex 1.567506e+02 -3.640168e+01 -8.602920e+01
      vertex 1.368777e+02 -3.131143e+01 -1.150975e+02
      vertex 1.567809e+02 -3.555396e+01 -1.156336e+02
    endloop
  endfacet
  facet normal -2.466958e-01 -9.670980e-01 -6.215021e-02
    outer loop
      vertex 1.567809e+02 -3.555396e+01 -1.156336e+02
      vertex 1.383149e+02 -2.900673e+01 -1.442149e+02
      vertex 1.569415e+02 -3.368737e+01 -1.453163e+02
    endloop
  endfacet
  facet normal -7.912692e-01 -6.105999e-01 -3.256921e-02
    outer loop
      vertex 1.143363e+02 -1.413243e+01 -5.632999e+01
      vertex 1.150943e+02 -1.354898e+01 -8.568426e+01
      vertex 1.243186e+02 -2.553677e+01 -8.504337e+01
    endloop
  endfacet
  facet normal -9.035425e-01 -4.273151e-01 -3.182545e-02
    outer loop
      vertex 1.038416e+02 7.734152e+00 -5.197896e+01
      vertex 1.150943e+02 -1.354898e+01 -8.568426e+01
      vertex 1.143363e+02 -1.413243e+01 -5.632999e+01
    endloop
  endfacet
  facet normal -9.378317e-01 -3.311429e-01 -1.040008e-01
    outer loop
      vertex 1.038416e+02 7.734152e+00 -5.197896e+01
      vertex 1.075103e+02 8.024946e+00 -8.598729e+01
      vertex 1.150943e+02 -1.354898e+01 -8.568426e+01
    endloop
  endfacet
  facet normal -5.357772e-01 -8.440956e-01 -2.110722e-02
    outer loop
      vertex 1.353751e+02 -3.325804e+01 -5.691687e+01
      vertex 1.243186e+02 -2.553677e+01 -8.504337e+01
      vertex 1.358904e+02 -3.286198e+01 -8.583478e+01
    endloop
  endfacet
  facet normal -8.623922e-01 -4.956630e-01 -1.029457e-01
    outer loop
      vertex 1.192719e+02 -2.540307e+01 -4.341052e+01
      vertex 1.143363e+02 -1.413243e+01 -5.632999e+01
      vertex 1.243186e+02 -2.553677e+01 -8.504337e+01
    endloop
  endfacet
  facet normal -4.744373e-01 -8.785889e-01 -5.468894e-02
    outer loop
      vertex 1.353751e+02 -3.325804e+01 -5.691687e+01
      vertex 1.192719e+02 -2.540307e+01 -4.341052e+01
      vertex 1.243186e+02 -2.553677e+01 -8.504337e+01
    endloop
  endfacet
  facet normal -1.401855e-01 -9.899951e-01 -1.605666e-02
    outer loop
      vertex 1.556786e+02 -3.612909e+01 -5.716149e+01
      vertex 1.353751e+02 -3.325804e+01 -5.691687e+01
      vertex 1.358904e+02 -3.286198e+01 -8.583478e+01
    endloop
  endfacet
  facet normal -1.672657e-01 -9.859070e-01 3.097980e-03
    outer loop
      vertex 1.556786e+02 -3.612909e+01 -5.716149e+01
      vertex 1.358904e+02 -3.286198e+01 -8.583478e+01
      vertex 1.567506e+02 -3.640168e+01 -8.602920e+01
    endloop
  endfacet
  facet normal -9.098361e-01 -4.147244e-01 -1.421197e-02
    outer loop
      vertex 1.142849e+02 -1.475168e+01 -3.497001e+01
      vertex 1.143363e+02 -1.413243e+01 -5.632999e+01
      vertex 1.192719e+02 -2.540307e+01 -4.341052e+01
    endloop
  endfacet
  facet normal -9.618942e-01 -2.732304e-01 -1.023510e-02
    outer loop
      vertex 1.085780e+02 5.416138e+00 -3.701670e+01
      vertex 1.143363e+02 -1.413243e+01 -5.632999e+01
      vertex 1.142849e+02 -1.475168e+01 -3.497001e+01
    endloop
  endfacet
  facet normal -8.662608e-01 -4.562536e-01 2.035313e-01
    outer loop
      vertex 1.085780e+02 5.416138e+00 -3.701670e+01
      vertex 1.038416e+02 7.734152e+00 -5.197896e+01
      vertex 1.143363e+02 -1.413243e+01 -5.632999e+01
    endloop
  endfacet
  facet normal -4.660866e-01 -8.837545e-01 -4.172856e-02
    outer loop
      vertex 1.364499e+02 -3.493507e+01 -3.340446e+01
      vertex 1.192719e+02 -2.540307e+01 -4.341052e+01
      vertex 1.353751e+02 -3.325804e+01 -5.691687e+01
    endloop
  endfacet
  facet normal -7.649023e-01 -5.800704e-01 2.800766e-01
    outer loop
      vertex 1.237679e+02 -2.852117e+01 -3.758983e+01
      vertex 1.142849e+02 -1.475168e+01 -3.497001e+01
      vertex 1.192719e+02 -2.540307e+01 -4.341052e+01
    endloop
  endfacet
  facet normal -3.976328e-01 -9.006373e-01 -1.753298e-01
    outer loop
      vertex 1.364499e+02 -3.493507e+01 -3.340446e+01
      vertex 1.237679e+02 -2.852117e+01 -3.758983e+01
      vertex 1.192719e+02 -2.540307e+01 -4.341052e+01
    endloop
  endfacet
  facet normal -9.286729e-02 -9.934477e-01 -6.661292e-02
    outer loop
      vertex 1.556673e+02 -3.685526e+01 -3.155885e+01
      vertex 1.364499e+02 -3.493507e+01 -3.340446e+01
      vertex 1.353751e+02 -3.325804e+01 -5.691687e+01
    endloop
  endfacet
  facet normal -1.402908e-01 -9.897106e-01 -2.813309e-02
    outer loop
      vertex 1.556673e+02 -3.685526e+01 -3.155885e+01
      vertex 1.353751e+02 -3.325804e+01 -5.691687e+01
      vertex 1.556786e+02 -3.612909e+01 -5.716149e+01
    endloop
  endfacet
  facet normal -6.181653e-01 -5.352513e-01 5.756542e-01
    outer loop
      vertex 1.288573e+02 -2.381040e+01 -2.774443e+01
      vertex 1.142849e+02 -1.475168e+01 -3.497001e+01
      vertex 1.237679e+02 -2.852117e+01 -3.758983e+01
    endloop
  endfacet
  facet normal -4.848234e-01 -8.564248e-02 8.704089e-01
    outer loop
      vertex 1.163231e+02 -1.646052e+00 -3.254522e+01
      vertex 1.142849e+02 -1.475168e+01 -3.497001e+01
      vertex 1.288573e+02 -2.381040e+01 -2.774443e+01
    endloop
  endfacet
  facet normal -5.456457e-01 -6.965367e-02 8.351163e-01
    outer loop
      vertex 1.163231e+02 -1.646052e+00 -3.254522e+01
      vertex 1.085780e+02 5.416138e+00 -3.701670e+01
      vertex 1.142849e+02 -1.475168e+01 -3.497001e+01
    endloop
  endfacet
  facet normal -5.126615e-01 -6.406941e-01 5.715673e-01
    outer loop
      vertex 1.288573e+02 -2.381040e+01 -2.774443e+01
      vertex 1.237679e+02 -2.852117e+01 -3.758983e+01
      vertex 1.364499e+02 -3.493507e+01 -3.340446e+01
    endloop
  endfacet
  facet normal -2.291328e-01 -5.610775e-01 7.954183e-01
    outer loop
      vertex 1.332967e+02 -2.398626e+01 -2.658964e+01
      vertex 1.288573e+02 -2.381040e+01 -2.774443e+01
      vertex 1.364499e+02 -3.493507e+01 -3.340446e+01
    endloop
  endfacet
  facet normal -1.362461e-01 -7.935744e-01 5.930233e-01
    outer loop
      vertex 1.567097e+02 -3.254414e+01 -2.555029e+01
      vertex 1.364499e+02 -3.493507e+01 -3.340446e+01
      vertex 1.556673e+02 -3.685526e+01 -3.155885e+01
    endloop
  endfacet
  facet normal -6.413153e-01 -5.300147e-01 5.547964e-01
    outer loop
      vertex 1.388182e+02 -3.127125e+01 -2.716663e+01
      vertex 1.332967e+02 -2.398626e+01 -2.658964e+01
      vertex 1.364499e+02 -3.493507e+01 -3.340446e+01
    endloop
  endfacet
  facet normal -1.078860e-01 -8.388039e-01 5.336371e-01
    outer loop
      vertex 1.567097e+02 -3.254414e+01 -2.555029e+01
      vertex 1.388182e+02 -3.127125e+01 -2.716663e+01
      vertex 1.364499e+02 -3.493507e+01 -3.340446e+01
    endloop
  endfacet
  facet normal -7.900807e-01 -5.178504e-01 -3.280296e-01
    outer loop
      vertex 1.200491e+02 -8.571623e+00 -3.058632e+01
      vertex 1.163231e+02 -1.646052e+00 -3.254522e+01
      vertex 1.288573e+02 -2.381040e+01 -2.774443e+01
    endloop
  endfacet
  facet normal -2.502567e-01 3.578236e-02 9.675181e-01
    outer loop
      vertex 1.200491e+02 -8.571623e+00 -3.058632e+01
      vertex 1.288573e+02 -2.381040e+01 -2.774443e+01
      vertex 1.332967e+02 -2.398626e+01 -2.658964e+01
    endloop
  endfacet
  facet normal -9.330247e-01 1.454128e-02 -3.595185e-01
    outer loop
      vertex 1.103548e+02 3.245147e+01 -1.730781e+02
      vertex 1.159109e+02 6.237350e+00 -1.885575e+02
      vertex 1.109894e+02 8.382973e+00 -1.756986e+02
    endloop
  endfacet
  facet normal -9.996780e-01 -2.457215e-02 6.340349e-03
    outer loop
      vertex 1.105652e+02 3.335707e+01 -1.457976e+02
      vertex 1.109894e+02 8.382973e+00 -1.756986e+02
      vertex 1.111694e+02 8.808690e+00 -1.456685e+02
    endloop
  endfacet
  facet normal -9.995903e-01 -2.729584e-02 8.616487e-03
    outer loop
      vertex 1.105652e+02 3.335707e+01 -1.457976e+02
      vertex 1.103548e+02 3.245147e+01 -1.730781e+02
      vertex 1.109894e+02 8.382973e+00 -1.756986e+02
    endloop
  endfacet
  facet normal -7.651519e-01 2.547279e-01 -5.913174e-01
    outer loop
      vertex 1.332551e+02 3.290097e+01 -1.995145e+02
      vertex 1.243737e+02 1.372399e+01 -1.962832e+02
      vertex 1.159109e+02 6.237350e+00 -1.885575e+02
    endloop
  endfacet
  facet normal -9.477145e-01 -1.257415e-02 -3.188717e-01
    outer loop
      vertex 1.179662e+02 3.156366e+01 -1.956650e+02
      vertex 1.159109e+02 6.237350e+00 -1.885575e+02
      vertex 1.103548e+02 3.245147e+01 -1.730781e+02
    endloop
  endfacet
  facet normal -2.161539e-01 -2.475074e-01 -9.444668e-01
    outer loop
      vertex 1.332551e+02 3.290097e+01 -1.995145e+02
      vertex 1.159109e+02 6.237350e+00 -1.885575e+02
      vertex 1.179662e+02 3.156366e+01 -1.956650e+02
    endloop
  endfacet
  facet normal 1.603071e-01 -2.357480e-01 -9.585012e-01
    outer loop
      vertex 1.686384e+02 3.673364e+01 -1.945394e+02
      vertex 1.243737e+02 1.372399e+01 -1.962832e+02
      vertex 1.332551e+02 3.290097e+01 -1.995145e+02
    endloop
  endfacet
  facet normal 2.468632e-02 2.824329e-02 -9.992962e-01
    outer loop
      vertex 1.686384e+02 3.673364e+01 -1.945394e+02
      vertex 1.591096e+02 -4.934422e+00 -1.959525e+02
      vertex 1.243737e+02 1.372399e+01 -1.962832e+02
    endloop
  endfacet
  facet normal -9.976141e-01 -1.378523e-02 -6.764677e-02
    outer loop
      vertex 1.088265e+02 3.312089e+01 -1.160702e+02
      vertex 1.111694e+02 8.808690e+00 -1.456685e+02
      vertex 1.091527e+02 7.912684e+00 -1.157443e+02
    endloop
  endfacet
  facet normal -9.979735e-01 -2.487155e-02 -5.856885e-02
    outer loop
      vertex 1.088265e+02 3.312089e+01 -1.160702e+02
      vertex 1.105652e+02 3.335707e+01 -1.457976e+02
      vertex 1.111694e+02 8.808690e+00 -1.456685e+02
    endloop
  endfacet
  facet normal -9.982226e-01 2.251138e-02 -5.518013e-02
    outer loop
      vertex 1.080875e+02 3.260747e+01 -8.639938e+01
      vertex 1.091527e+02 7.912684e+00 -1.157443e+02
      vertex 1.075103e+02 8.024946e+00 -8.598729e+01
    endloop
  endfacet
  facet normal -9.995963e-01 -1.326118e-02 -2.512617e-02
    outer loop
      vertex 1.080875e+02 3.260747e+01 -8.639938e+01
      vertex 1.088265e+02 3.312089e+01 -1.160702e+02
      vertex 1.091527e+02 7.912684e+00 -1.157443e+02
    endloop
  endfacet
  facet normal -9.930370e-01 4.993113e-02 -1.066977e-01
    outer loop
      vertex 1.056567e+02 3.289245e+01 -5.709837e+01
      vertex 1.075103e+02 8.024946e+00 -8.598729e+01
      vertex 1.038416e+02 7.734152e+00 -5.197896e+01
    endloop
  endfacet
  facet normal -9.963177e-01 2.200252e-02 -8.286730e-02
    outer loop
      vertex 1.056567e+02 3.289245e+01 -5.709837e+01
      vertex 1.080875e+02 3.260747e+01 -8.639938e+01
      vertex 1.075103e+02 8.024946e+00 -8.598729e+01
    endloop
  endfacet
  facet normal -9.264710e-01 1.929173e-01 3.231631e-01
    outer loop
      vertex 1.136547e+02 2.910484e+01 -3.660356e+01
      vertex 1.038416e+02 7.734152e+00 -5.197896e+01
      vertex 1.085780e+02 5.416138e+00 -3.701670e+01
    endloop
  endfacet
  facet normal -9.126224e-01 1.437179e-01 3.827082e-01
    outer loop
      vertex 1.136547e+02 2.910484e+01 -3.660356e+01
      vertex 1.056567e+02 3.289245e+01 -5.709837e+01
      vertex 1.038416e+02 7.734152e+00 -5.197896e+01
    endloop
  endfacet
  facet normal -4.102205e-01 1.223215e-01 9.037459e-01
    outer loop
      vertex 1.218564e+02 3.992451e+01 -3.566017e+01
      vertex 1.085780e+02 5.416138e+00 -3.701670e+01
      vertex 1.163231e+02 -1.646052e+00 -3.254522e+01
    endloop
  endfacet
  facet normal -1.272365e-01 9.970379e-03 9.918223e-01
    outer loop
      vertex 1.218564e+02 3.992451e+01 -3.566017e+01
      vertex 1.136547e+02 2.910484e+01 -3.660356e+01
      vertex 1.085780e+02 5.416138e+00 -3.701670e+01
    endloop
  endfacet
  facet normal -9.606328e-02 8.708559e-02 9.915583e-01
    outer loop
      vertex 1.643629e+02 4.346645e+01 -3.185317e+01
      vertex 1.218564e+02 3.992451e+01 -3.566017e+01
      vertex 1.163231e+02 -1.646052e+00 -3.254522e+01
    endloop
  endfacet
  facet normal -1.271809e-01 2.060110e-01 9.702497e-01
    outer loop
      vertex 1.764981e+02 -5.969138e+00 -2.373954e+01
      vertex 1.163231e+02 -1.646052e+00 -3.254522e+01
      vertex 1.200491e+02 -8.571623e+00 -3.058632e+01
    endloop
  endfacet
  facet normal -1.321202e-01 1.551229e-01 9.790205e-01
    outer loop
      vertex 1.787653e+02 4.123523e-01 -2.444470e+01
      vertex 1.163231e+02 -1.646052e+00 -3.254522e+01
      vertex 1.764981e+02 -5.969138e+00 -2.373954e+01
    endloop
  endfacet
  facet normal -1.316950e-01 1.251552e-01 9.833578e-01
    outer loop
      vertex 1.643629e+02 4.346645e+01 -3.185317e+01
      vertex 1.163231e+02 -1.646052e+00 -3.254522e+01
      vertex 1.787653e+02 4.123523e-01 -2.444470e+01
    endloop
  endfacet
  facet normal -8.533578e-01 4.233636e-01 -3.042101e-01
    outer loop
      vertex 1.135574e+02 4.514056e+01 -1.644028e+02
      vertex 1.179662e+02 3.156366e+01 -1.956650e+02
      vertex 1.103548e+02 3.245147e+01 -1.730781e+02
    endloop
  endfacet
  facet normal -9.657939e-01 2.593083e-01 -1.158271e-03
    outer loop
      vertex 1.161784e+02 5.425645e+01 -1.473445e+02
      vertex 1.103548e+02 3.245147e+01 -1.730781e+02
      vertex 1.105652e+02 3.335707e+01 -1.457976e+02
    endloop
  endfacet
  facet normal -9.736871e-01 2.260619e-01 2.879882e-02
    outer loop
      vertex 1.161784e+02 5.425645e+01 -1.473445e+02
      vertex 1.135574e+02 4.514056e+01 -1.644028e+02
      vertex 1.103548e+02 3.245147e+01 -1.730781e+02
    endloop
  endfacet
  facet normal -2.397842e-01 6.400008e-01 -7.300017e-01
    outer loop
      vertex 1.327534e+02 4.113029e+01 -1.921350e+02
      vertex 1.332551e+02 3.290097e+01 -1.995145e+02
      vertex 1.179662e+02 3.156366e+01 -1.956650e+02
    endloop
  endfacet
  facet normal -9.867517e-01 4.100940e-02 -1.569689e-01
    outer loop
      vertex 1.174097e+02 3.539919e+01 -1.911645e+02
      vertex 1.179662e+02 3.156366e+01 -1.956650e+02
      vertex 1.135574e+02 4.514056e+01 -1.644028e+02
    endloop
  endfacet
  facet normal -3.041921e-01 7.061298e-01 -6.394122e-01
    outer loop
      vertex 1.327534e+02 4.113029e+01 -1.921350e+02
      vertex 1.179662e+02 3.156366e+01 -1.956650e+02
      vertex 1.174097e+02 3.539919e+01 -1.911645e+02
    endloop
  endfacet
  facet normal -8.244210e-02 6.625581e-01 -7.444595e-01
    outer loop
      vertex 1.667631e+02 4.775688e+01 -1.900037e+02
      vertex 1.332551e+02 3.290097e+01 -1.995145e+02
      vertex 1.327534e+02 4.113029e+01 -1.921350e+02
    endloop
  endfacet
  facet normal 8.638311e-02 3.916276e-01 -9.160599e-01
    outer loop
      vertex 1.667631e+02 4.775688e+01 -1.900037e+02
      vertex 1.686384e+02 3.673364e+01 -1.945394e+02
      vertex 1.332551e+02 3.290097e+01 -1.995145e+02
    endloop
  endfacet
  facet normal -9.181979e-01 3.928791e-01 -5.058376e-02
    outer loop
      vertex 1.163991e+02 5.078825e+01 -1.163078e+02
      vertex 1.105652e+02 3.335707e+01 -1.457976e+02
      vertex 1.088265e+02 3.312089e+01 -1.160702e+02
    endloop
  endfacet
  facet normal -9.644708e-01 2.617109e-01 3.610264e-02
    outer loop
      vertex 1.163991e+02 5.078825e+01 -1.163078e+02
      vertex 1.161784e+02 5.425645e+01 -1.473445e+02
      vertex 1.105652e+02 3.335707e+01 -1.457976e+02
    endloop
  endfacet
  facet normal -9.022230e-01 4.310084e-01 -1.501340e-02
    outer loop
      vertex 1.165725e+02 5.033267e+01 -8.744197e+01
      vertex 1.088265e+02 3.312089e+01 -1.160702e+02
      vertex 1.080875e+02 3.260747e+01 -8.639938e+01
    endloop
  endfacet
  facet normal -9.190079e-01 3.940643e-01 1.173951e-02
    outer loop
      vertex 1.165725e+02 5.033267e+01 -8.744197e+01
      vertex 1.163991e+02 5.078825e+01 -1.163078e+02
      vertex 1.088265e+02 3.312089e+01 -1.160702e+02
    endloop
  endfacet
  facet normal -8.954508e-01 4.381760e-01 -7.854706e-02
    outer loop
      vertex 1.143712e+02 5.000813e+01 -6.096490e+01
      vertex 1.080875e+02 3.260747e+01 -8.639938e+01
      vertex 1.056567e+02 3.289245e+01 -5.709837e+01
    endloop
  endfacet
  facet normal -9.013778e-01 4.273870e-01 -6.970162e-02
    outer loop
      vertex 1.143712e+02 5.000813e+01 -6.096490e+01
      vertex 1.165725e+02 5.033267e+01 -8.744197e+01
      vertex 1.080875e+02 3.260747e+01 -8.639938e+01
    endloop
  endfacet
  facet normal -8.051862e-01 4.415819e-01 3.958291e-01
    outer loop
      vertex 1.207261e+02 4.495077e+01 -3.989658e+01
      vertex 1.056567e+02 3.289245e+01 -5.709837e+01
      vertex 1.136547e+02 2.910484e+01 -3.660356e+01
    endloop
  endfacet
  facet normal -7.972176e-01 4.866161e-01 3.572798e-01
    outer loop
      vertex 1.207261e+02 4.495077e+01 -3.989658e+01
      vertex 1.143712e+02 5.000813e+01 -6.096490e+01
      vertex 1.056567e+02 3.289245e+01 -5.709837e+01
    endloop
  endfacet
  facet normal -3.835346e-01 3.647099e-01 -8.484621e-01
    outer loop
      vertex 1.337351e+02 5.116687e+01 -3.619727e+01
      vertex 1.136547e+02 2.910484e+01 -3.660356e+01
      vertex 1.218564e+02 3.992451e+01 -3.566017e+01
    endloop
  endfacet
  facet normal -4.094023e-01 3.571682e-01 8.395360e-01
    outer loop
      vertex 1.337351e+02 5.116687e+01 -3.619727e+01
      vertex 1.207261e+02 4.495077e+01 -3.989658e+01
      vertex 1.136547e+02 2.910484e+01 -3.660356e+01
    endloop
  endfacet
  facet normal -4.441793e-02 9.444552e-02 9.945386e-01
    outer loop
      vertex 1.543712e+02 5.245664e+01 -3.539810e+01
      vertex 1.337351e+02 5.116687e+01 -3.619727e+01
      vertex 1.218564e+02 3.992451e+01 -3.566017e+01
    endloop
  endfacet
  facet normal -1.075482e-01 2.589630e-01 9.598810e-01
    outer loop
      vertex 1.543712e+02 5.245664e+01 -3.539810e+01
      vertex 1.218564e+02 3.992451e+01 -3.566017e+01
      vertex 1.643629e+02 4.346645e+01 -3.185317e+01
    endloop
  endfacet
  facet normal -1.647154e-01 9.189897e-01 -3.582272e-01
    outer loop
      vertex 1.333951e+02 4.341281e+01 -1.779567e+02
      vertex 1.174097e+02 3.539919e+01 -1.911645e+02
      vertex 1.135574e+02 4.514056e+01 -1.644028e+02
    endloop
  endfacet
  facet normal -2.764164e-01 8.154762e-01 -5.085199e-01
    outer loop
      vertex 1.262065e+02 6.175694e+01 -1.446320e+02
      vertex 1.333951e+02 4.341281e+01 -1.779567e+02
      vertex 1.135574e+02 4.514056e+01 -1.644028e+02
    endloop
  endfacet
  facet normal -4.996049e-01 7.935763e-01 -3.473205e-01
    outer loop
      vertex 1.262065e+02 6.175694e+01 -1.446320e+02
      vertex 1.135574e+02 4.514056e+01 -1.644028e+02
      vertex 1.161784e+02 5.425645e+01 -1.473445e+02
    endloop
  endfacet
  facet normal -3.541657e-01 9.256778e-01 -1.329935e-01
    outer loop
      vertex 1.327534e+02 4.113029e+01 -1.921350e+02
      vertex 1.174097e+02 3.539919e+01 -1.911645e+02
      vertex 1.333951e+02 4.341281e+01 -1.779567e+02
    endloop
  endfacet
  facet normal -2.064000e-01 9.674525e-01 -1.464062e-01
    outer loop
      vertex 1.650404e+02 5.024207e+01 -1.774417e+02
      vertex 1.327534e+02 4.113029e+01 -1.921350e+02
      vertex 1.333951e+02 4.341281e+01 -1.779567e+02
    endloop
  endfacet
  facet normal 4.791111e-02 8.793670e-01 -4.737280e-01
    outer loop
      vertex 1.309039e+02 6.623229e+01 -1.358495e+02
      vertex 1.333951e+02 4.341281e+01 -1.779567e+02
      vertex 1.262065e+02 6.175694e+01 -1.446320e+02
    endloop
  endfacet
  facet normal 1.148328e-02 -8.788493e-01 4.769613e-01
    outer loop
      vertex 1.233668e+02 5.777230e+01 -1.512564e+02
      vertex 1.333951e+02 4.341281e+01 -1.779567e+02
      vertex 1.309039e+02 6.623229e+01 -1.358495e+02
    endloop
  endfacet
  facet normal -1.691474e-01 8.245116e-01 -5.399721e-01
    outer loop
      vertex 1.672859e+02 6.617769e+01 -1.538121e+02
      vertex 1.650404e+02 5.024207e+01 -1.774417e+02
      vertex 1.333951e+02 4.341281e+01 -1.779567e+02
    endloop
  endfacet
  facet normal -1.896900e-01 8.332351e-01 -5.193622e-01
    outer loop
      vertex 1.672859e+02 6.617769e+01 -1.538121e+02
      vertex 1.333951e+02 4.341281e+01 -1.779567e+02
      vertex 1.233668e+02 5.777230e+01 -1.512564e+02
    endloop
  endfacet
  facet normal -1.738790e-01 9.612315e-01 -2.140096e-01
    outer loop
      vertex 1.667631e+02 4.775688e+01 -1.900037e+02
      vertex 1.327534e+02 4.113029e+01 -1.921350e+02
      vertex 1.650404e+02 5.024207e+01 -1.774417e+02
    endloop
  endfacet
  facet normal -5.775795e-01 8.097221e-01 -1.036917e-01
    outer loop
      vertex 1.309039e+02 6.623229e+01 -1.358495e+02
      vertex 1.262065e+02 6.175694e+01 -1.446320e+02
      vertex 1.161784e+02 5.425645e+01 -1.473445e+02
    endloop
  endfacet
  facet normal -7.162697e-01 6.929268e-01 8.252402e-02
    outer loop
      vertex 1.254331e+02 6.020260e+01 -1.169455e+02
      vertex 1.161784e+02 5.425645e+01 -1.473445e+02
      vertex 1.163991e+02 5.078825e+01 -1.163078e+02
    endloop
  endfacet
  facet normal -8.406770e-01 5.190571e-01 1.544084e-01
    outer loop
      vertex 1.211405e+02 6.026253e+01 -1.405184e+02
      vertex 1.161784e+02 5.425645e+01 -1.473445e+02
      vertex 1.254331e+02 6.020260e+01 -1.169455e+02
    endloop
  endfacet
  facet normal -2.362417e-01 8.082293e-01 -5.394027e-01
    outer loop
      vertex 1.309039e+02 6.623229e+01 -1.358495e+02
      vertex 1.161784e+02 5.425645e+01 -1.473445e+02
      vertex 1.211405e+02 6.026253e+01 -1.405184e+02
    endloop
  endfacet
  facet normal -6.346432e-01 7.726395e-01 1.600635e-02
    outer loop
      vertex 1.295190e+02 6.095280e+01 -8.676161e+01
      vertex 1.163991e+02 5.078825e+01 -1.163078e+02
      vertex 1.165725e+02 5.033267e+01 -8.744197e+01
    endloop
  endfacet
  facet normal -6.768199e-01 7.345936e-01 4.782352e-02
    outer loop
      vertex 1.287816e+02 6.221993e+01 -1.166617e+02
      vertex 1.163991e+02 5.078825e+01 -1.163078e+02
      vertex 1.295190e+02 6.095280e+01 -8.676161e+01
    endloop
  endfacet
  facet normal -6.784658e-01 7.345443e-01 -1.134646e-02
    outer loop
      vertex 1.371317e+02 6.977745e+01 -1.267033e+02
      vertex 1.163991e+02 5.078825e+01 -1.163078e+02
      vertex 1.287816e+02 6.221993e+01 -1.166617e+02
    endloop
  endfacet
  facet normal 7.140464e-01 -6.718720e-01 1.967886e-01
    outer loop
      vertex 1.371317e+02 6.977745e+01 -1.267033e+02
      vertex 1.254331e+02 6.020260e+01 -1.169455e+02
      vertex 1.163991e+02 5.078825e+01 -1.163078e+02
    endloop
  endfacet
  facet normal -6.347744e-01 7.723581e-01 2.289740e-02
    outer loop
      vertex 1.295562e+02 6.014180e+01 -5.837312e+01
      vertex 1.295190e+02 6.095280e+01 -8.676161e+01
      vertex 1.165725e+02 5.033267e+01 -8.744197e+01
    endloop
  endfacet
  facet normal -5.505349e-01 8.340550e-01 -3.554794e-02
    outer loop
      vertex 1.295562e+02 6.014180e+01 -5.837312e+01
      vertex 1.165725e+02 5.033267e+01 -8.744197e+01
      vertex 1.143712e+02 5.000813e+01 -6.096490e+01
    endloop
  endfacet
  facet normal -4.122480e-01 9.097680e-01 4.872198e-02
    outer loop
      vertex 1.353049e+02 6.367649e+01 -8.866435e+01
      vertex 1.287816e+02 6.221993e+01 -1.166617e+02
      vertex 1.295190e+02 6.095280e+01 -8.676161e+01
    endloop
  endfacet
  facet normal -5.134082e-01 8.577751e-01 2.517842e-02
    outer loop
      vertex 1.351238e+02 6.357067e+01 -6.166046e+01
      vertex 1.295190e+02 6.095280e+01 -8.676161e+01
      vertex 1.295562e+02 6.014180e+01 -5.837312e+01
    endloop
  endfacet
  facet normal -4.257287e-01 9.048506e-01 6.909556e-04
    outer loop
      vertex 1.351238e+02 6.357067e+01 -6.166046e+01
      vertex 1.353049e+02 6.367649e+01 -8.866435e+01
      vertex 1.295190e+02 6.095280e+01 -8.676161e+01
    endloop
  endfacet
  facet normal -6.000527e-01 7.938719e-01 9.850944e-02
    outer loop
      vertex 1.353049e+02 6.367649e+01 -8.866435e+01
      vertex 1.371317e+02 6.977745e+01 -1.267033e+02
      vertex 1.287816e+02 6.221993e+01 -1.166617e+02
    endloop
  endfacet
  facet normal -5.550314e-01 7.294463e-01 3.998102e-01
    outer loop
      vertex 1.337351e+02 5.116687e+01 -3.619727e+01
      vertex 1.295562e+02 6.014180e+01 -5.837312e+01
      vertex 1.143712e+02 5.000813e+01 -6.096490e+01
    endloop
  endfacet
  facet normal -4.823783e-01 8.075582e-01 3.393538e-01
    outer loop
      vertex 1.337351e+02 5.116687e+01 -3.619727e+01
      vertex 1.143712e+02 5.000813e+01 -6.096490e+01
      vertex 1.207261e+02 4.495077e+01 -3.989658e+01
    endloop
  endfacet
  facet normal -7.242557e-02 9.197066e-01 3.858681e-01
    outer loop
      vertex 1.543712e+02 5.245664e+01 -3.539810e+01
      vertex 1.295562e+02 6.014180e+01 -5.837312e+01
      vertex 1.337351e+02 5.116687e+01 -3.619727e+01
    endloop
  endfacet
  facet normal -1.208446e-01 8.947868e-01 4.298292e-01
    outer loop
      vertex 1.566045e+02 6.305737e+01 -5.683805e+01
      vertex 1.295562e+02 6.014180e+01 -5.837312e+01
      vertex 1.543712e+02 5.245664e+01 -3.539810e+01
    endloop
  endfacet
  facet normal -1.170948e-01 7.342025e-01 6.687567e-01
    outer loop
      vertex 1.527122e+02 6.428995e+01 -5.887278e+01
      vertex 1.295562e+02 6.014180e+01 -5.837312e+01
      vertex 1.566045e+02 6.305737e+01 -5.683805e+01
    endloop
  endfacet
  facet normal -1.278961e-01 7.866919e-01 6.039524e-01
    outer loop
      vertex 1.527122e+02 6.428995e+01 -5.887278e+01
      vertex 1.351238e+02 6.357067e+01 -6.166046e+01
      vertex 1.295562e+02 6.014180e+01 -5.837312e+01
    endloop
  endfacet
  facet normal -5.749118e-01 8.112212e-01 1.067550e-01
    outer loop
      vertex 1.371317e+02 6.977745e+01 -1.267033e+02
      vertex 1.211405e+02 6.026253e+01 -1.405184e+02
      vertex 1.254331e+02 6.020260e+01 -1.169455e+02
    endloop
  endfacet
  facet normal -5.337860e-01 8.448535e-01 3.598720e-02
    outer loop
      vertex 1.309039e+02 6.623229e+01 -1.358495e+02
      vertex 1.211405e+02 6.026253e+01 -1.405184e+02
      vertex 1.371317e+02 6.977745e+01 -1.267033e+02
    endloop
  endfacet
  facet normal 3.620428e-01 7.592418e-01 -5.408113e-01
    outer loop
      vertex 1.532781e+02 6.822917e+01 -1.180679e+02
      vertex 1.309039e+02 6.623229e+01 -1.358495e+02
      vertex 1.371317e+02 6.977745e+01 -1.267033e+02
    endloop
  endfacet
  facet normal 5.012548e-02 9.951449e-01 8.469970e-02
    outer loop
      vertex 1.534194e+02 6.580991e+01 -8.972741e+01
      vertex 1.532781e+02 6.822917e+01 -1.180679e+02
      vertex 1.371317e+02 6.977745e+01 -1.267033e+02
    endloop
  endfacet
  facet normal -1.067692e-01 9.825260e-01 1.524568e-01
    outer loop
      vertex 1.534194e+02 6.580991e+01 -8.972741e+01
      vertex 1.371317e+02 6.977745e+01 -1.267033e+02
      vertex 1.353049e+02 6.367649e+01 -8.866435e+01
    endloop
  endfacet
  facet normal -2.178919e-01 8.965287e-01 -3.856934e-01
    outer loop
      vertex 1.588360e+02 7.053445e+01 -1.416291e+02
      vertex 1.233668e+02 5.777230e+01 -1.512564e+02
      vertex 1.309039e+02 6.623229e+01 -1.358495e+02
    endloop
  endfacet
  facet normal -1.389866e-01 9.882302e-01 6.390476e-02
    outer loop
      vertex 1.532781e+02 6.822917e+01 -1.180679e+02
      vertex 1.588360e+02 7.053445e+01 -1.416291e+02
      vertex 1.309039e+02 6.623229e+01 -1.358495e+02
    endloop
  endfacet
  facet normal 4.439315e-02 -9.985964e-01 -2.888830e-02
    outer loop
      vertex 1.796730e+02 -2.958446e+01 -1.866382e+02
      vertex 1.559698e+02 -3.098730e+01 -1.745707e+02
      vertex 1.572418e+02 -3.032433e+01 -1.955332e+02
    endloop
  endfacet
  facet normal 1.857969e-01 -9.778457e-01 -9.642297e-02
    outer loop
      vertex 1.776736e+02 -2.966710e+01 -1.461381e+02
      vertex 1.569415e+02 -3.368737e+01 -1.453163e+02
      vertex 1.559698e+02 -3.098730e+01 -1.745707e+02
    endloop
  endfacet
  facet normal 5.953783e-02 -9.982256e-01 9.024316e-04
    outer loop
      vertex 1.776736e+02 -2.966710e+01 -1.461381e+02
      vertex 1.559698e+02 -3.098730e+01 -1.745707e+02
      vertex 1.796730e+02 -2.958446e+01 -1.866382e+02
    endloop
  endfacet
  facet normal 1.125996e-01 -5.263108e-01 -8.428038e-01
    outer loop
      vertex 1.837935e+02 -2.078707e+01 -1.979416e+02
      vertex 1.572418e+02 -3.032433e+01 -1.955332e+02
      vertex 1.571261e+02 -2.341835e+01 -1.998613e+02
    endloop
  endfacet
  facet normal 1.042385e-01 -9.778450e-01 -1.815308e-01
    outer loop
      vertex 1.773366e+02 -2.840701e+01 -1.943223e+02
      vertex 1.796730e+02 -2.958446e+01 -1.866382e+02
      vertex 1.572418e+02 -3.032433e+01 -1.955332e+02
    endloop
  endfacet
  facet normal 9.920095e-02 -4.942684e-01 -8.636306e-01
    outer loop
      vertex 1.837935e+02 -2.078707e+01 -1.979416e+02
      vertex 1.773366e+02 -2.840701e+01 -1.943223e+02
      vertex 1.572418e+02 -3.032433e+01 -1.955332e+02
    endloop
  endfacet
  facet normal -2.009380e-02 2.089163e-01 -9.777271e-01
    outer loop
      vertex 1.828846e+02 -7.527242e-01 -1.955475e+02
      vertex 1.571261e+02 -2.341835e+01 -1.998613e+02
      vertex 1.591096e+02 -4.934422e+00 -1.959525e+02
    endloop
  endfacet
  facet normal 5.937739e-02 1.211007e-01 -9.908627e-01
    outer loop
      vertex 1.828846e+02 -7.527242e-01 -1.955475e+02
      vertex 1.837935e+02 -2.078707e+01 -1.979416e+02
      vertex 1.571261e+02 -2.341835e+01 -1.998613e+02
    endloop
  endfacet
  facet normal 2.349391e-01 -9.701726e-01 -5.973860e-02
    outer loop
      vertex 1.761118e+02 -3.084021e+01 -1.161622e+02
      vertex 1.567809e+02 -3.555396e+01 -1.156336e+02
      vertex 1.569415e+02 -3.368737e+01 -1.453163e+02
    endloop
  endfacet
  facet normal 1.892003e-01 -9.815233e-01 -2.855443e-02
    outer loop
      vertex 1.761118e+02 -3.084021e+01 -1.161622e+02
      vertex 1.569415e+02 -3.368737e+01 -1.453163e+02
      vertex 1.776736e+02 -2.966710e+01 -1.461381e+02
    endloop
  endfacet
  facet normal 2.816165e-01 -9.591421e-01 -2.717667e-02
    outer loop
      vertex 1.760798e+02 -3.070890e+01 -8.664657e+01
      vertex 1.567506e+02 -3.640168e+01 -8.602920e+01
      vertex 1.567809e+02 -3.555396e+01 -1.156336e+02
    endloop
  endfacet
  facet normal 2.370200e-01 -9.714940e-01 4.579087e-03
    outer loop
      vertex 1.760798e+02 -3.070890e+01 -8.664657e+01
      vertex 1.567809e+02 -3.555396e+01 -1.156336e+02
      vertex 1.761118e+02 -3.084021e+01 -1.161622e+02
    endloop
  endfacet
  facet normal 2.823864e-01 -9.591016e-01 1.954320e-02
    outer loop
      vertex 1.739702e+02 -3.075847e+01 -5.789416e+01
      vertex 1.556786e+02 -3.612909e+01 -5.716149e+01
      vertex 1.567506e+02 -3.640168e+01 -8.602920e+01
    endloop
  endfacet
  facet normal 2.830297e-01 -9.589207e-01 1.911318e-02
    outer loop
      vertex 1.739702e+02 -3.075847e+01 -5.789416e+01
      vertex 1.567506e+02 -3.640168e+01 -8.602920e+01
      vertex 1.760798e+02 -3.070890e+01 -8.664657e+01
    endloop
  endfacet
  facet normal 3.123276e-01 -9.495965e-01 -2.679590e-02
    outer loop
      vertex 1.743987e+02 -3.064452e+01 -3.332726e+01
      vertex 1.556673e+02 -3.685526e+01 -3.155885e+01
      vertex 1.556786e+02 -3.612909e+01 -5.716149e+01
    endloop
  endfacet
  facet normal 2.817025e-01 -9.595017e-01 -4.627947e-04
    outer loop
      vertex 1.743987e+02 -3.064452e+01 -3.332726e+01
      vertex 1.556786e+02 -3.612909e+01 -5.716149e+01
      vertex 1.739702e+02 -3.075847e+01 -5.789416e+01
    endloop
  endfacet
  facet normal 2.814635e-01 -8.021111e-01 5.266840e-01
    outer loop
      vertex 1.721264e+02 -2.722542e+01 -2.568897e+01
      vertex 1.567097e+02 -3.254414e+01 -2.555029e+01
      vertex 1.556673e+02 -3.685526e+01 -3.155885e+01
    endloop
  endfacet
  facet normal 3.179061e-01 -8.265199e-01 4.645434e-01
    outer loop
      vertex 1.721264e+02 -2.722542e+01 -2.568897e+01
      vertex 1.556673e+02 -3.685526e+01 -3.155885e+01
      vertex 1.743987e+02 -3.064452e+01 -3.332726e+01
    endloop
  endfacet
  facet normal -1.274536e-01 -1.739407e-01 9.764733e-01
    outer loop
      vertex 1.595649e+02 -2.496155e+01 -2.333473e+01
      vertex 1.332967e+02 -2.398626e+01 -2.658964e+01
      vertex 1.388182e+02 -3.127125e+01 -2.716663e+01
    endloop
  endfacet
  facet normal -1.173989e-01 1.256670e-01 9.851017e-01
    outer loop
      vertex 1.764981e+02 -5.969138e+00 -2.373954e+01
      vertex 1.332967e+02 -2.398626e+01 -2.658964e+01
      vertex 1.595649e+02 -2.496155e+01 -2.333473e+01
    endloop
  endfacet
  facet normal -1.257587e-01 1.463278e-01 9.812099e-01
    outer loop
      vertex 1.764981e+02 -5.969138e+00 -2.373954e+01
      vertex 1.200491e+02 -8.571623e+00 -3.058632e+01
      vertex 1.332967e+02 -2.398626e+01 -2.658964e+01
    endloop
  endfacet
  facet normal -1.043894e-01 -2.425152e-01 9.645150e-01
    outer loop
      vertex 1.595649e+02 -2.496155e+01 -2.333473e+01
      vertex 1.388182e+02 -3.127125e+01 -2.716663e+01
      vertex 1.567097e+02 -3.254414e+01 -2.555029e+01
    endloop
  endfacet
  facet normal 1.512356e-01 -3.292814e-01 9.320416e-01
    outer loop
      vertex 1.773026e+02 -1.723183e+01 -2.348205e+01
      vertex 1.595649e+02 -2.496155e+01 -2.333473e+01
      vertex 1.567097e+02 -3.254414e+01 -2.555029e+01
    endloop
  endfacet
  facet normal 9.951776e-02 -2.634410e-01 9.595286e-01
    outer loop
      vertex 1.721264e+02 -2.722542e+01 -2.568897e+01
      vertex 1.773026e+02 -1.723183e+01 -2.348205e+01
      vertex 1.567097e+02 -3.254414e+01 -2.555029e+01
    endloop
  endfacet
  facet normal 3.640437e-01 -3.430293e-01 -8.659117e-01
    outer loop
      vertex 1.824547e+02 2.321846e+00 -2.451973e+01
      vertex 1.764981e+02 -5.969138e+00 -2.373954e+01
      vertex 1.595649e+02 -2.496155e+01 -2.333473e+01
    endloop
  endfacet
  facet normal -1.671247e-02 5.737660e-02 9.982127e-01
    outer loop
      vertex 1.824547e+02 2.321846e+00 -2.451973e+01
      vertex 1.595649e+02 -2.496155e+01 -2.333473e+01
      vertex 1.773026e+02 -1.723183e+01 -2.348205e+01
    endloop
  endfacet
  facet normal -7.587529e-02 5.112161e-02 -9.958060e-01
    outer loop
      vertex 1.764225e+02 3.514909e+01 -1.952138e+02
      vertex 1.591096e+02 -4.934422e+00 -1.959525e+02
      vertex 1.686384e+02 3.673364e+01 -1.945394e+02
    endloop
  endfacet
  facet normal 1.492113e-02 1.197878e-02 -9.998169e-01
    outer loop
      vertex 1.764225e+02 3.514909e+01 -1.952138e+02
      vertex 1.828846e+02 -7.527242e-01 -1.955475e+02
      vertex 1.591096e+02 -4.934422e+00 -1.959525e+02
    endloop
  endfacet
  facet normal 9.854483e-02 -1.438201e-01 -9.846851e-01
    outer loop
      vertex 1.675849e+02 4.070875e+01 -3.144918e+01
      vertex 1.787653e+02 4.123523e-01 -2.444470e+01
      vertex 1.764981e+02 -5.969138e+00 -2.373954e+01
    endloop
  endfacet
  facet normal -1.591727e-01 2.052288e-01 9.656838e-01
    outer loop
      vertex 1.817500e+02 2.405635e+01 -2.925494e+01
      vertex 1.764981e+02 -5.969138e+00 -2.373954e+01
      vertex 1.824547e+02 2.321846e+00 -2.451973e+01
    endloop
  endfacet
  facet normal 4.981134e-02 1.720086e-01 9.838353e-01
    outer loop
      vertex 1.817500e+02 2.405635e+01 -2.925494e+01
      vertex 1.675849e+02 4.070875e+01 -3.144918e+01
      vertex 1.764981e+02 -5.969138e+00 -2.373954e+01
    endloop
  endfacet
  facet normal 3.016342e-02 1.792958e-01 9.833327e-01
    outer loop
      vertex 1.675849e+02 4.070875e+01 -3.144918e+01
      vertex 1.643629e+02 4.346645e+01 -3.185317e+01
      vertex 1.787653e+02 4.123523e-01 -2.444470e+01
    endloop
  endfacet
  facet normal -2.423518e-01 3.336283e-01 -9.110202e-01
    outer loop
      vertex 1.727863e+02 4.722080e+01 -1.918023e+02
      vertex 1.686384e+02 3.673364e+01 -1.945394e+02
      vertex 1.667631e+02 4.775688e+01 -1.900037e+02
    endloop
  endfacet
  facet normal -2.990821e-02 2.634825e-01 -9.642004e-01
    outer loop
      vertex 1.727863e+02 4.722080e+01 -1.918023e+02
      vertex 1.764225e+02 3.514909e+01 -1.952138e+02
      vertex 1.686384e+02 3.673364e+01 -1.945394e+02
    endloop
  endfacet
  facet normal 3.665356e-01 6.642497e-01 6.514783e-01
    outer loop
      vertex 1.736697e+02 4.684656e+01 -4.053578e+01
      vertex 1.543712e+02 5.245664e+01 -3.539810e+01
      vertex 1.643629e+02 4.346645e+01 -3.185317e+01
    endloop
  endfacet
  facet normal 4.610841e-02 -9.184804e-02 -9.947050e-01
    outer loop
      vertex 1.817500e+02 2.405635e+01 -2.925494e+01
      vertex 1.643629e+02 4.346645e+01 -3.185317e+01
      vertex 1.675849e+02 4.070875e+01 -3.144918e+01
    endloop
  endfacet
  facet normal 3.203800e-01 4.018204e-01 8.578444e-01
    outer loop
      vertex 1.823678e+02 3.081305e+01 -3.265056e+01
      vertex 1.643629e+02 4.346645e+01 -3.185317e+01
      vertex 1.817500e+02 2.405635e+01 -2.925494e+01
    endloop
  endfacet
  facet normal 4.356718e-01 5.763639e-01 6.913716e-01
    outer loop
      vertex 1.736697e+02 4.684656e+01 -4.053578e+01
      vertex 1.643629e+02 4.346645e+01 -3.185317e+01
      vertex 1.823678e+02 3.081305e+01 -3.265056e+01
    endloop
  endfacet
  facet normal -1.787535e-01 9.602319e-01 -2.144804e-01
    outer loop
      vertex 1.866010e+02 5.620520e+01 -1.687138e+02
      vertex 1.667631e+02 4.775688e+01 -1.900037e+02
      vertex 1.650404e+02 5.024207e+01 -1.774417e+02
    endloop
  endfacet
  facet normal -5.075411e-02 8.302420e-01 -5.550876e-01
    outer loop
      vertex 1.809338e+02 6.222047e+01 -1.609788e+02
      vertex 1.650404e+02 5.024207e+01 -1.774417e+02
      vertex 1.672859e+02 6.617769e+01 -1.538121e+02
    endloop
  endfacet
  facet normal 2.351229e-02 7.974505e-01 -6.029261e-01
    outer loop
      vertex 1.809338e+02 6.222047e+01 -1.609788e+02
      vertex 1.866010e+02 5.620520e+01 -1.687138e+02
      vertex 1.650404e+02 5.024207e+01 -1.774417e+02
    endloop
  endfacet
  facet normal -2.159922e-02 9.360115e-01 -3.513061e-01
    outer loop
      vertex 1.727863e+02 4.722080e+01 -1.918023e+02
      vertex 1.667631e+02 4.775688e+01 -1.900037e+02
      vertex 1.866010e+02 5.620520e+01 -1.687138e+02
    endloop
  endfacet
  facet normal 3.570622e-01 8.220112e-01 4.436263e-01
    outer loop
      vertex 1.736697e+02 4.684656e+01 -4.053578e+01
      vertex 1.566045e+02 6.305737e+01 -5.683805e+01
      vertex 1.543712e+02 5.245664e+01 -3.539810e+01
    endloop
  endfacet
  facet normal 4.018035e-01 8.858488e-01 -2.320039e-01
    outer loop
      vertex 1.667283e+02 5.894949e+01 -5.498968e+01
      vertex 1.527122e+02 6.428995e+01 -5.887278e+01
      vertex 1.566045e+02 6.305737e+01 -5.683805e+01
    endloop
  endfacet
  facet normal 3.335362e-01 8.195953e-01 4.658510e-01
    outer loop
      vertex 1.740559e+02 5.340782e+01 -5.235584e+01
      vertex 1.566045e+02 6.305737e+01 -5.683805e+01
      vertex 1.736697e+02 4.684656e+01 -4.053578e+01
    endloop
  endfacet
  facet normal 1.978846e-02 4.504032e-01 8.926059e-01
    outer loop
      vertex 1.667283e+02 5.894949e+01 -5.498968e+01
      vertex 1.566045e+02 6.305737e+01 -5.683805e+01
      vertex 1.740559e+02 5.340782e+01 -5.235584e+01
    endloop
  endfacet
  facet normal -1.931926e-01 8.737089e-01 -4.464408e-01
    outer loop
      vertex 1.672859e+02 6.617769e+01 -1.538121e+02
      vertex 1.233668e+02 5.777230e+01 -1.512564e+02
      vertex 1.588360e+02 7.053445e+01 -1.416291e+02
    endloop
  endfacet
  facet normal 1.185200e-01 9.581845e-01 -2.604523e-01
    outer loop
      vertex 1.749133e+02 6.700757e+01 -1.472882e+02
      vertex 1.672859e+02 6.617769e+01 -1.538121e+02
      vertex 1.588360e+02 7.053445e+01 -1.416291e+02
    endloop
  endfacet
  facet normal 2.640426e-01 9.519062e-01 1.554223e-01
    outer loop
      vertex 1.708292e+02 6.360880e+01 -1.195870e+02
      vertex 1.588360e+02 7.053445e+01 -1.416291e+02
      vertex 1.532781e+02 6.822917e+01 -1.180679e+02
    endloop
  endfacet
  facet normal 2.636298e-01 9.519801e-01 1.556701e-01
    outer loop
      vertex 1.708292e+02 6.360880e+01 -1.195870e+02
      vertex 1.749133e+02 6.700757e+01 -1.472882e+02
      vertex 1.588360e+02 7.053445e+01 -1.416291e+02
    endloop
  endfacet
  facet normal 1.316799e-01 9.523561e-01 -2.750967e-01
    outer loop
      vertex 1.809338e+02 6.222047e+01 -1.609788e+02
      vertex 1.672859e+02 6.617769e+01 -1.538121e+02
      vertex 1.749133e+02 6.700757e+01 -1.472882e+02
    endloop
  endfacet
  facet normal 2.811117e-01 9.563152e-01 8.023334e-02
    outer loop
      vertex 1.680268e+02 6.177018e+01 -9.275692e+01
      vertex 1.532781e+02 6.822917e+01 -1.180679e+02
      vertex 1.534194e+02 6.580991e+01 -8.972741e+01
    endloop
  endfacet
  facet normal 2.610003e-01 9.608382e-01 9.310646e-02
    outer loop
      vertex 1.680268e+02 6.177018e+01 -9.275692e+01
      vertex 1.708292e+02 6.360880e+01 -1.195870e+02
      vertex 1.532781e+02 6.822917e+01 -1.180679e+02
    endloop
  endfacet
  facet normal -1.141618e-01 9.923841e-01 4.627005e-02
    outer loop
      vertex 1.527122e+02 6.428995e+01 -5.887278e+01
      vertex 1.534194e+02 6.580991e+01 -8.972741e+01
      vertex 1.353049e+02 6.367649e+01 -8.866435e+01
    endloop
  endfacet
  facet normal -4.143658e-02 9.991345e-01 3.637542e-03
    outer loop
      vertex 1.527122e+02 6.428995e+01 -5.887278e+01
      vertex 1.353049e+02 6.367649e+01 -8.866435e+01
      vertex 1.351238e+02 6.357067e+01 -6.166046e+01
    endloop
  endfacet
  facet normal 3.424196e-01 9.379908e-01 5.405573e-02
    outer loop
      vertex 1.667283e+02 5.894949e+01 -5.498968e+01
      vertex 1.534194e+02 6.580991e+01 -8.972741e+01
      vertex 1.527122e+02 6.428995e+01 -5.887278e+01
    endloop
  endfacet
  facet normal 2.812567e-01 9.562007e-01 8.108516e-02
    outer loop
      vertex 1.667283e+02 5.894949e+01 -5.498968e+01
      vertex 1.680268e+02 6.177018e+01 -9.275692e+01
      vertex 1.534194e+02 6.580991e+01 -8.972741e+01
    endloop
  endfacet
  facet normal 5.076864e-01 -8.150295e-01 -2.792514e-01
    outer loop
      vertex 1.930065e+02 -2.198880e+01 -1.845665e+02
      vertex 1.796730e+02 -2.958446e+01 -1.866382e+02
      vertex 1.773366e+02 -2.840701e+01 -1.943223e+02
    endloop
  endfacet
  facet normal 5.466934e-01 -8.369511e-01 2.528127e-02
    outer loop
      vertex 1.894175e+02 -2.206783e+01 -1.485154e+02
      vertex 1.776736e+02 -2.966710e+01 -1.461381e+02
      vertex 1.796730e+02 -2.958446e+01 -1.866382e+02
    endloop
  endfacet
  facet normal 4.889486e-01 -8.710581e-01 4.676618e-02
    outer loop
      vertex 1.894175e+02 -2.206783e+01 -1.485154e+02
      vertex 1.796730e+02 -2.958446e+01 -1.866382e+02
      vertex 1.930065e+02 -2.198880e+01 -1.845665e+02
    endloop
  endfacet
  facet normal 5.607469e-01 -6.914814e-01 -4.554299e-01
    outer loop
      vertex 1.982683e+02 -1.257137e+01 -1.925935e+02
      vertex 1.773366e+02 -2.840701e+01 -1.943223e+02
      vertex 1.837935e+02 -2.078707e+01 -1.979416e+02
    endloop
  endfacet
  facet normal 2.717152e-01 -2.579367e-01 -9.271675e-01
    outer loop
      vertex 1.982683e+02 -1.257137e+01 -1.925935e+02
      vertex 1.891266e+02 -2.341077e+01 -1.922571e+02
      vertex 1.773366e+02 -2.840701e+01 -1.943223e+02
    endloop
  endfacet
  facet normal 3.943357e-01 -9.185052e-01 -2.911252e-02
    outer loop
      vertex 1.930065e+02 -2.198880e+01 -1.845665e+02
      vertex 1.773366e+02 -2.840701e+01 -1.943223e+02
      vertex 1.891266e+02 -2.341077e+01 -1.922571e+02
    endloop
  endfacet
  facet normal 1.800064e-01 1.247644e-01 -9.757210e-01
    outer loop
      vertex 2.029449e+02 3.749158e+00 -1.912711e+02
      vertex 1.837935e+02 -2.078707e+01 -1.979416e+02
      vertex 1.828846e+02 -7.527242e-01 -1.955475e+02
    endloop
  endfacet
  facet normal 3.602224e-01 -2.766248e-02 -9.324562e-01
    outer loop
      vertex 2.029449e+02 3.749158e+00 -1.912711e+02
      vertex 1.982683e+02 -1.257137e+01 -1.925935e+02
      vertex 1.837935e+02 -2.078707e+01 -1.979416e+02
    endloop
  endfacet
  facet normal 5.494357e-01 -8.355261e-01 -4.071998e-03
    outer loop
      vertex 1.867238e+02 -2.385488e+01 -1.175924e+02
      vertex 1.761118e+02 -3.084021e+01 -1.161622e+02
      vertex 1.776736e+02 -2.966710e+01 -1.461381e+02
    endloop
  endfacet
  facet normal 5.430909e-01 -8.396731e-01 -1.216042e-03
    outer loop
      vertex 1.867238e+02 -2.385488e+01 -1.175924e+02
      vertex 1.776736e+02 -2.966710e+01 -1.461381e+02
      vertex 1.894175e+02 -2.206783e+01 -1.485154e+02
    endloop
  endfacet
  facet normal 5.919563e-01 -8.059590e-01 4.227795e-03
    outer loop
      vertex 1.852141e+02 -2.400818e+01 -8.820679e+01
      vertex 1.760798e+02 -3.070890e+01 -8.664657e+01
      vertex 1.761118e+02 -3.084021e+01 -1.161622e+02
    endloop
  endfacet
  facet normal 5.519201e-01 -8.335514e-01 2.400687e-02
    outer loop
      vertex 1.852141e+02 -2.400818e+01 -8.820679e+01
      vertex 1.761118e+02 -3.084021e+01 -1.161622e+02
      vertex 1.867238e+02 -2.385488e+01 -1.175924e+02
    endloop
  endfacet
  facet normal 6.094120e-01 -7.903161e-01 6.338322e-02
    outer loop
      vertex 1.860471e+02 -2.300904e+01 -8.647050e+01
      vertex 1.844475e+02 -2.184000e+01 -5.651436e+01
      vertex 1.760798e+02 -3.070890e+01 -8.664657e+01
    endloop
  endfacet
  facet normal 6.439884e-01 -7.636550e-01 4.593416e-02
    outer loop
      vertex 1.739702e+02 -3.075847e+01 -5.789416e+01
      vertex 1.760798e+02 -3.070890e+01 -8.664657e+01
      vertex 1.844475e+02 -2.184000e+01 -5.651436e+01
    endloop
  endfacet
  facet normal 2.660877e-01 -3.236812e-01 -9.079801e-01
    outer loop
      vertex 1.928079e+02 -1.270882e+01 -8.816107e+01
      vertex 1.860471e+02 -2.300904e+01 -8.647050e+01
      vertex 1.760798e+02 -3.070890e+01 -8.664657e+01
    endloop
  endfacet
  facet normal 3.165550e-01 -2.164807e-01 9.235416e-01
    outer loop
      vertex 1.852141e+02 -2.400818e+01 -8.820679e+01
      vertex 1.928079e+02 -1.270882e+01 -8.816107e+01
      vertex 1.760798e+02 -3.070890e+01 -8.664657e+01
    endloop
  endfacet
  facet normal 8.631282e-01 -5.007021e-01 6.562877e-02
    outer loop
      vertex 1.902509e+02 -1.217887e+01 -5.913090e+01
      vertex 1.844475e+02 -2.184000e+01 -5.651436e+01
      vertex 1.860471e+02 -2.300904e+01 -8.647050e+01
    endloop
  endfacet
  facet normal 6.391465e-01 -7.642211e-01 8.635903e-02
    outer loop
      vertex 1.824282e+02 -2.043395e+01 -2.912701e+01
      vertex 1.739702e+02 -3.075847e+01 -5.789416e+01
      vertex 1.844475e+02 -2.184000e+01 -5.651436e+01
    endloop
  endfacet
  facet normal 7.629688e-01 -6.402620e-01 8.912449e-02
    outer loop
      vertex 1.886627e+02 -1.380434e+01 -3.487260e+01
      vertex 1.824282e+02 -2.043395e+01 -2.912701e+01
      vertex 1.844475e+02 -2.184000e+01 -5.651436e+01
    endloop
  endfacet
  facet normal 8.596493e-01 -5.104073e-01 2.207810e-02
    outer loop
      vertex 1.886627e+02 -1.380434e+01 -3.487260e+01
      vertex 1.844475e+02 -2.184000e+01 -5.651436e+01
      vertex 1.902509e+02 -1.217887e+01 -5.913090e+01
    endloop
  endfacet
  facet normal 8.393104e-01 -5.371652e-01 8.373535e-02
    outer loop
      vertex 1.902509e+02 -1.217887e+01 -5.913090e+01
      vertex 1.860471e+02 -2.300904e+01 -8.647050e+01
      vertex 1.928079e+02 -1.270882e+01 -8.816107e+01
    endloop
  endfacet
  facet normal 7.881845e-01 -6.153426e-01 -1.089313e-02
    outer loop
      vertex 1.743987e+02 -3.064452e+01 -3.332726e+01
      vertex 1.739702e+02 -3.075847e+01 -5.789416e+01
      vertex 1.824282e+02 -2.043395e+01 -2.912701e+01
    endloop
  endfacet
  facet normal 3.950197e-01 -5.976469e-01 6.976945e-01
    outer loop
      vertex 1.773026e+02 -1.723183e+01 -2.348205e+01
      vertex 1.743987e+02 -3.064452e+01 -3.332726e+01
      vertex 1.824282e+02 -2.043395e+01 -2.912701e+01
    endloop
  endfacet
  facet normal 6.904746e-01 -1.443160e-01 7.088143e-01
    outer loop
      vertex 1.824547e+02 2.321846e+00 -2.451973e+01
      vertex 1.773026e+02 -1.723183e+01 -2.348205e+01
      vertex 1.824282e+02 -2.043395e+01 -2.912701e+01
    endloop
  endfacet
  facet normal 5.405871e-01 -1.675505e-01 8.244346e-01
    outer loop
      vertex 1.863777e+02 5.799150e+00 -2.638536e+01
      vertex 1.824547e+02 2.321846e+00 -2.451973e+01
      vertex 1.824282e+02 -2.043395e+01 -2.912701e+01
    endloop
  endfacet
  facet normal 8.232745e-01 -1.802040e-01 5.382802e-01
    outer loop
      vertex 1.919458e+02 5.910002e+00 -3.486445e+01
      vertex 1.863777e+02 5.799150e+00 -2.638536e+01
      vertex 1.824282e+02 -2.043395e+01 -2.912701e+01
    endloop
  endfacet
  facet normal 7.403461e-01 -1.235659e-01 6.607715e-01
    outer loop
      vertex 1.886627e+02 -1.380434e+01 -3.487260e+01
      vertex 1.919458e+02 5.910002e+00 -3.486445e+01
      vertex 1.824282e+02 -2.043395e+01 -2.912701e+01
    endloop
  endfacet
  facet normal 7.528155e-01 -4.875732e-01 4.422004e-01
    outer loop
      vertex 1.721264e+02 -2.722542e+01 -2.568897e+01
      vertex 1.743987e+02 -3.064452e+01 -3.332726e+01
      vertex 1.773026e+02 -1.723183e+01 -2.348205e+01
    endloop
  endfacet
  facet normal 3.942971e-01 7.948065e-02 -9.155395e-01
    outer loop
      vertex 2.036067e+02 2.610207e+01 -1.842918e+02
      vertex 1.828846e+02 -7.527242e-01 -1.955475e+02
      vertex 1.764225e+02 3.514909e+01 -1.952138e+02
    endloop
  endfacet
  facet normal 1.364003e-01 2.915740e-01 -9.467732e-01
    outer loop
      vertex 2.036067e+02 2.610207e+01 -1.842918e+02
      vertex 2.029449e+02 3.749158e+00 -1.912711e+02
      vertex 1.828846e+02 -7.527242e-01 -1.955475e+02
    endloop
  endfacet
  facet normal 2.586482e-01 2.136280e-01 9.420532e-01
    outer loop
      vertex 1.817500e+02 2.405635e+01 -2.925494e+01
      vertex 1.824547e+02 2.321846e+00 -2.451973e+01
      vertex 1.863777e+02 5.799150e+00 -2.638536e+01
    endloop
  endfacet
  facet normal 6.795133e-01 2.788953e-01 6.785861e-01
    outer loop
      vertex 1.823678e+02 3.081305e+01 -3.265056e+01
      vertex 1.817500e+02 2.405635e+01 -2.925494e+01
      vertex 1.863777e+02 5.799150e+00 -2.638536e+01
    endloop
  endfacet
  facet normal 7.094426e-01 2.761359e-01 6.484136e-01
    outer loop
      vertex 1.895760e+02 2.358092e+01 -3.745731e+01
      vertex 1.823678e+02 3.081305e+01 -3.265056e+01
      vertex 1.863777e+02 5.799150e+00 -2.638536e+01
    endloop
  endfacet
  facet normal 8.196352e-01 1.892603e-01 5.407205e-01
    outer loop
      vertex 1.895760e+02 2.358092e+01 -3.745731e+01
      vertex 1.863777e+02 5.799150e+00 -2.638536e+01
      vertex 1.919458e+02 5.910002e+00 -3.486445e+01
    endloop
  endfacet
  facet normal 3.592526e-01 3.524259e-01 -8.641375e-01
    outer loop
      vertex 1.865756e+02 4.522750e+01 -1.868825e+02
      vertex 1.764225e+02 3.514909e+01 -1.952138e+02
      vertex 1.727863e+02 4.722080e+01 -1.918023e+02
    endloop
  endfacet
  facet normal 4.352020e-01 2.712525e-01 -8.584994e-01
    outer loop
      vertex 1.865756e+02 4.522750e+01 -1.868825e+02
      vertex 2.036067e+02 2.610207e+01 -1.842918e+02
      vertex 1.764225e+02 3.514909e+01 -1.952138e+02
    endloop
  endfacet
  facet normal 6.047353e-01 5.907539e-01 5.341395e-01
    outer loop
      vertex 1.840322e+02 3.829359e+01 -4.280838e+01
      vertex 1.736697e+02 4.684656e+01 -4.053578e+01
      vertex 1.823678e+02 3.081305e+01 -3.265056e+01
    endloop
  endfacet
  facet normal 7.627938e-01 4.546604e-01 4.598147e-01
    outer loop
      vertex 1.840322e+02 3.829359e+01 -4.280838e+01
      vertex 1.823678e+02 3.081305e+01 -3.265056e+01
      vertex 1.895760e+02 2.358092e+01 -3.745731e+01
    endloop
  endfacet
  facet normal 4.276105e-01 7.261265e-01 -5.384139e-01
    outer loop
      vertex 1.969973e+02 4.846795e+01 -1.708918e+02
      vertex 1.727863e+02 4.722080e+01 -1.918023e+02
      vertex 1.866010e+02 5.620520e+01 -1.687138e+02
    endloop
  endfacet
  facet normal 8.141722e-01 5.572179e-01 1.631928e-01
    outer loop
      vertex 1.809338e+02 6.222047e+01 -1.609788e+02
      vertex 1.749133e+02 6.700757e+01 -1.472882e+02
      vertex 1.866010e+02 5.620520e+01 -1.687138e+02
    endloop
  endfacet
  facet normal 7.440857e-01 6.643039e-01 7.097011e-02
    outer loop
      vertex 1.820241e+02 5.905029e+01 -1.473577e+02
      vertex 1.866010e+02 5.620520e+01 -1.687138e+02
      vertex 1.749133e+02 6.700757e+01 -1.472882e+02
    endloop
  endfacet
  facet normal 4.434312e-01 8.959782e-01 -2.432887e-02
    outer loop
      vertex 1.938812e+02 5.282485e+01 -1.605119e+02
      vertex 1.866010e+02 5.620520e+01 -1.687138e+02
      vertex 1.820241e+02 5.905029e+01 -1.473577e+02
    endloop
  endfacet
  facet normal 5.653871e-01 8.072999e-01 -1.691280e-01
    outer loop
      vertex 1.938812e+02 5.282485e+01 -1.605119e+02
      vertex 1.969973e+02 4.846795e+01 -1.708918e+02
      vertex 1.866010e+02 5.620520e+01 -1.687138e+02
    endloop
  endfacet
  facet normal 2.548293e-01 9.018709e-01 -3.488421e-01
    outer loop
      vertex 1.865756e+02 4.522750e+01 -1.868825e+02
      vertex 1.727863e+02 4.722080e+01 -1.918023e+02
      vertex 1.969973e+02 4.846795e+01 -1.708918e+02
    endloop
  endfacet
  facet normal 6.354402e-01 6.661162e-01 3.905190e-01
    outer loop
      vertex 1.840322e+02 3.829359e+01 -4.280838e+01
      vertex 1.740559e+02 5.340782e+01 -5.235584e+01
      vertex 1.736697e+02 4.684656e+01 -4.053578e+01
    endloop
  endfacet
  facet normal 5.843579e-01 8.080721e-01 7.446717e-02
    outer loop
      vertex 1.667283e+02 5.894949e+01 -5.498968e+01
      vertex 1.740559e+02 5.340782e+01 -5.235584e+01
      vertex 1.777886e+02 5.402849e+01 -8.838196e+01
    endloop
  endfacet
  facet normal 7.394533e-01 6.674165e-01 8.811339e-02
    outer loop
      vertex 1.821741e+02 4.394067e+01 -4.877539e+01
      vertex 1.777886e+02 5.402849e+01 -8.838196e+01
      vertex 1.740559e+02 5.340782e+01 -5.235584e+01
    endloop
  endfacet
  facet normal 5.837987e-01 6.725985e-01 4.547421e-01
    outer loop
      vertex 1.840322e+02 3.829359e+01 -4.280838e+01
      vertex 1.821741e+02 4.394067e+01 -4.877539e+01
      vertex 1.740559e+02 5.340782e+01 -5.235584e+01
    endloop
  endfacet
  facet normal 7.331403e-01 6.534981e-01 1.882699e-01
    outer loop
      vertex 1.708292e+02 6.360880e+01 -1.195870e+02
      vertex 1.820241e+02 5.905029e+01 -1.473577e+02
      vertex 1.749133e+02 6.700757e+01 -1.472882e+02
    endloop
  endfacet
  facet normal 5.667901e-01 8.184669e-01 9.413217e-02
    outer loop
      vertex 1.798572e+02 5.714089e+01 -1.177089e+02
      vertex 1.820241e+02 5.905029e+01 -1.473577e+02
      vertex 1.708292e+02 6.360880e+01 -1.195870e+02
    endloop
  endfacet
  facet normal 7.551588e-01 6.483343e-01 9.694210e-02
    outer loop
      vertex 1.899056e+02 4.583105e+01 -1.203450e+02
      vertex 1.820241e+02 5.905029e+01 -1.473577e+02
      vertex 1.798572e+02 5.714089e+01 -1.177089e+02
    endloop
  endfacet
  facet normal 6.159945e-01 7.635112e-01 1.939106e-01
    outer loop
      vertex 1.899056e+02 4.583105e+01 -1.203450e+02
      vertex 1.938812e+02 5.282485e+01 -1.605119e+02
      vertex 1.820241e+02 5.905029e+01 -1.473577e+02
    endloop
  endfacet
  facet normal 5.626334e-01 8.186869e-01 1.148710e-01
    outer loop
      vertex 1.680268e+02 6.177018e+01 -9.275692e+01
      vertex 1.798572e+02 5.714089e+01 -1.177089e+02
      vertex 1.708292e+02 6.360880e+01 -1.195870e+02
    endloop
  endfacet
  facet normal 5.810293e-01 8.040210e-01 1.263139e-01
    outer loop
      vertex 1.777886e+02 5.402849e+01 -8.838196e+01
      vertex 1.798572e+02 5.714089e+01 -1.177089e+02
      vertex 1.680268e+02 6.177018e+01 -9.275692e+01
    endloop
  endfacet
  facet normal 7.482143e-01 6.521458e-01 1.219887e-01
    outer loop
      vertex 1.865263e+02 4.455290e+01 -9.131860e+01
      vertex 1.798572e+02 5.714089e+01 -1.177089e+02
      vertex 1.777886e+02 5.402849e+01 -8.838196e+01
    endloop
  endfacet
  facet normal 7.558016e-01 6.443779e-01 1.163661e-01
    outer loop
      vertex 1.865263e+02 4.455290e+01 -9.131860e+01
      vertex 1.899056e+02 4.583105e+01 -1.203450e+02
      vertex 1.798572e+02 5.714089e+01 -1.177089e+02
    endloop
  endfacet
  facet normal 5.970809e-01 7.981678e-01 8.014091e-02
    outer loop
      vertex 1.667283e+02 5.894949e+01 -5.498968e+01
      vertex 1.777886e+02 5.402849e+01 -8.838196e+01
      vertex 1.680268e+02 6.177018e+01 -9.275692e+01
    endloop
  endfacet
  facet normal 7.455479e-01 6.609084e-01 8.578092e-02
    outer loop
      vertex 1.821741e+02 4.394067e+01 -4.877539e+01
      vertex 1.865263e+02 4.455290e+01 -9.131860e+01
      vertex 1.777886e+02 5.402849e+01 -8.838196e+01
    endloop
  endfacet
  facet normal 7.457635e-01 -6.351997e-01 -2.008933e-01
    outer loop
      vertex 1.982683e+02 -1.257137e+01 -1.925935e+02
      vertex 2.012622e+02 -1.239977e+01 -1.820220e+02
      vertex 1.891266e+02 -2.341077e+01 -1.922571e+02
    endloop
  endfacet
  facet normal 7.632741e-01 -5.836036e-01 -2.771632e-01
    outer loop
      vertex 1.930065e+02 -2.198880e+01 -1.845665e+02
      vertex 1.891266e+02 -2.341077e+01 -1.922571e+02
      vertex 2.012622e+02 -1.239977e+01 -1.820220e+02
    endloop
  endfacet
  facet normal 9.300070e-01 -2.606283e-01 -2.591521e-01
    outer loop
      vertex 2.078077e+02 6.541751e+00 -1.775821e+02
      vertex 2.012622e+02 -1.239977e+01 -1.820220e+02
      vertex 1.982683e+02 -1.257137e+01 -1.925935e+02
    endloop
  endfacet
  facet normal 7.406806e-01 -6.643219e-01 1.003424e-01
    outer loop
      vertex 1.970529e+02 -1.184967e+01 -1.473088e+02
      vertex 1.930065e+02 -2.198880e+01 -1.845665e+02
      vertex 2.012622e+02 -1.239977e+01 -1.820220e+02
    endloop
  endfacet
  facet normal 9.559982e-01 -2.676335e-01 1.201655e-01
    outer loop
      vertex 2.024832e+02 7.295287e+00 -1.478706e+02
      vertex 1.970529e+02 -1.184967e+01 -1.473088e+02
      vertex 2.012622e+02 -1.239977e+01 -1.820220e+02
    endloop
  endfacet
  facet normal 9.175594e-01 -3.577435e-01 1.735060e-01
    outer loop
      vertex 2.024832e+02 7.295287e+00 -1.478706e+02
      vertex 2.012622e+02 -1.239977e+01 -1.820220e+02
      vertex 2.078077e+02 6.541751e+00 -1.775821e+02
    endloop
  endfacet
  facet normal 9.285746e-01 -2.433727e-01 -2.802123e-01
    outer loop
      vertex 2.029449e+02 3.749158e+00 -1.912711e+02
      vertex 2.078077e+02 6.541751e+00 -1.775821e+02
      vertex 1.982683e+02 -1.257137e+01 -1.925935e+02
    endloop
  endfacet
  facet normal 7.942126e-01 -6.026460e-01 7.774424e-02
    outer loop
      vertex 1.894175e+02 -2.206783e+01 -1.485154e+02
      vertex 1.930065e+02 -2.198880e+01 -1.845665e+02
      vertex 1.970529e+02 -1.184967e+01 -1.473088e+02
    endloop
  endfacet
  facet normal 7.983312e-01 -6.010226e-01 3.793619e-02
    outer loop
      vertex 1.945991e+02 -1.325386e+01 -1.179183e+02
      vertex 1.894175e+02 -2.206783e+01 -1.485154e+02
      vertex 1.970529e+02 -1.184967e+01 -1.473088e+02
    endloop
  endfacet
  facet normal 9.651593e-01 -2.525337e-01 6.851418e-02
    outer loop
      vertex 1.997896e+02 6.546643e+00 -1.180550e+02
      vertex 1.945991e+02 -1.325386e+01 -1.179183e+02
      vertex 1.970529e+02 -1.184967e+01 -1.473088e+02
    endloop
  endfacet
  facet normal 9.595855e-01 -2.698323e-01 7.991389e-02
    outer loop
      vertex 1.997896e+02 6.546643e+00 -1.180550e+02
      vertex 1.970529e+02 -1.184967e+01 -1.473088e+02
      vertex 2.024832e+02 7.295287e+00 -1.478706e+02
    endloop
  endfacet
  facet normal 8.027488e-01 -5.952581e-01 3.552752e-02
    outer loop
      vertex 1.867238e+02 -2.385488e+01 -1.175924e+02
      vertex 1.894175e+02 -2.206783e+01 -1.485154e+02
      vertex 1.945991e+02 -1.325386e+01 -1.179183e+02
    endloop
  endfacet
  facet normal 8.021965e-01 -5.941210e-01 5.916964e-02
    outer loop
      vertex 1.928079e+02 -1.270882e+01 -8.816107e+01
      vertex 1.867238e+02 -2.385488e+01 -1.175924e+02
      vertex 1.945991e+02 -1.325386e+01 -1.179183e+02
    endloop
  endfacet
  facet normal 9.766834e-01 -2.053696e-01 6.255212e-02
    outer loop
      vertex 1.969044e+02 6.699826e+00 -8.840145e+01
      vertex 1.928079e+02 -1.270882e+01 -8.816107e+01
      vertex 1.945991e+02 -1.325386e+01 -1.179183e+02
    endloop
  endfacet
  facet normal 9.631015e-01 -2.518113e-01 9.500798e-02
    outer loop
      vertex 1.969044e+02 6.699826e+00 -8.840145e+01
      vertex 1.945991e+02 -1.325386e+01 -1.179183e+02
      vertex 1.997896e+02 6.546643e+00 -1.180550e+02
    endloop
  endfacet
  facet normal 8.292502e-01 -5.574660e-01 3.969525e-02
    outer loop
      vertex 1.852141e+02 -2.400818e+01 -8.820679e+01
      vertex 1.867238e+02 -2.385488e+01 -1.175924e+02
      vertex 1.928079e+02 -1.270882e+01 -8.816107e+01
    endloop
  endfacet
  facet normal 9.729701e-01 -2.040206e-01 1.081890e-01
    outer loop
      vertex 1.933975e+02 6.311637e+00 -5.759462e+01
      vertex 1.928079e+02 -1.270882e+01 -8.816107e+01
      vertex 1.969044e+02 6.699826e+00 -8.840145e+01
    endloop
  endfacet
  facet normal 9.806087e-01 -1.743160e-01 8.955752e-02
    outer loop
      vertex 1.902509e+02 -1.217887e+01 -5.913090e+01
      vertex 1.928079e+02 -1.270882e+01 -8.816107e+01
      vertex 1.933975e+02 6.311637e+00 -5.759462e+01
    endloop
  endfacet
  facet normal 9.321374e-01 9.270074e-02 -3.500379e-01
    outer loop
      vertex 2.060854e+02 3.061864e+01 -1.757923e+02
      vertex 2.078077e+02 6.541751e+00 -1.775821e+02
      vertex 2.029449e+02 3.749158e+00 -1.912711e+02
    endloop
  endfacet
  facet normal 9.807668e-01 8.942575e-02 1.734921e-01
    outer loop
      vertex 2.005219e+02 3.026625e+01 -1.486232e+02
      vertex 2.024832e+02 7.295287e+00 -1.478706e+02
      vertex 2.078077e+02 6.541751e+00 -1.775821e+02
    endloop
  endfacet
  facet normal 9.780463e-01 5.502267e-02 2.009924e-01
    outer loop
      vertex 2.005219e+02 3.026625e+01 -1.486232e+02
      vertex 2.078077e+02 6.541751e+00 -1.775821e+02
      vertex 2.060854e+02 3.061864e+01 -1.757923e+02
    endloop
  endfacet
  facet normal 9.470950e-01 6.977542e-02 -3.132768e-01
    outer loop
      vertex 2.036067e+02 2.610207e+01 -1.842918e+02
      vertex 2.060854e+02 3.061864e+01 -1.757923e+02
      vertex 2.029449e+02 3.749158e+00 -1.912711e+02
    endloop
  endfacet
  facet normal 9.899653e-01 1.071531e-01 9.212418e-02
    outer loop
      vertex 1.974333e+02 2.899414e+01 -1.188432e+02
      vertex 1.997896e+02 6.546643e+00 -1.180550e+02
      vertex 2.024832e+02 7.295287e+00 -1.478706e+02
    endloop
  endfacet
  facet normal 9.904084e-01 8.805336e-02 1.064789e-01
    outer loop
      vertex 1.974333e+02 2.899414e+01 -1.188432e+02
      vertex 2.024832e+02 7.295287e+00 -1.478706e+02
      vertex 2.005219e+02 3.026625e+01 -1.486232e+02
    endloop
  endfacet
  facet normal 9.865939e-01 1.324720e-01 9.530860e-02
    outer loop
      vertex 1.941383e+02 2.800420e+01 -8.937950e+01
      vertex 1.969044e+02 6.699826e+00 -8.840145e+01
      vertex 1.997896e+02 6.546643e+00 -1.180550e+02
    endloop
  endfacet
  facet normal 9.876208e-01 1.076775e-01 1.140645e-01
    outer loop
      vertex 1.941383e+02 2.800420e+01 -8.937950e+01
      vertex 1.997896e+02 6.546643e+00 -1.180550e+02
      vertex 1.974333e+02 2.899414e+01 -1.188432e+02
    endloop
  endfacet
  facet normal 9.814897e-01 1.541318e-01 1.136719e-01
    outer loop
      vertex 1.906710e+02 2.602223e+01 -6.077907e+01
      vertex 1.933975e+02 6.311637e+00 -5.759462e+01
      vertex 1.969044e+02 6.699826e+00 -8.840145e+01
    endloop
  endfacet
  facet normal 9.826995e-01 1.334849e-01 1.283878e-01
    outer loop
      vertex 1.906710e+02 2.602223e+01 -6.077907e+01
      vertex 1.969044e+02 6.699826e+00 -8.840145e+01
      vertex 1.941383e+02 2.800420e+01 -8.937950e+01
    endloop
  endfacet
  facet normal 9.832332e-01 -1.722860e-01 5.974887e-02
    outer loop
      vertex 1.919458e+02 5.910002e+00 -3.486445e+01
      vertex 1.902509e+02 -1.217887e+01 -5.913090e+01
      vertex 1.933975e+02 6.311637e+00 -5.759462e+01
    endloop
  endfacet
  facet normal 9.876798e-01 1.420803e-01 6.558760e-02
    outer loop
      vertex 1.895760e+02 2.358092e+01 -3.745731e+01
      vertex 1.919458e+02 5.910002e+00 -3.486445e+01
      vertex 1.933975e+02 6.311637e+00 -5.759462e+01
    endloop
  endfacet
  facet normal 9.872799e-01 1.465348e-01 6.169163e-02
    outer loop
      vertex 1.895760e+02 2.358092e+01 -3.745731e+01
      vertex 1.933975e+02 6.311637e+00 -5.759462e+01
      vertex 1.906710e+02 2.602223e+01 -6.077907e+01
    endloop
  endfacet
  facet normal 9.849993e-01 -1.640581e-01 5.349224e-02
    outer loop
      vertex 1.886627e+02 -1.380434e+01 -3.487260e+01
      vertex 1.902509e+02 -1.217887e+01 -5.913090e+01
      vertex 1.919458e+02 5.910002e+00 -3.486445e+01
    endloop
  endfacet
  facet normal 7.237338e-01 4.992782e-01 -4.763725e-01
    outer loop
      vertex 1.969973e+02 4.846795e+01 -1.708918e+02
      vertex 2.060854e+02 3.061864e+01 -1.757923e+02
      vertex 2.036067e+02 2.610207e+01 -1.842918e+02
    endloop
  endfacet
  facet normal 9.097730e-01 3.685136e-01 1.910779e-01
    outer loop
      vertex 1.938812e+02 5.282485e+01 -1.605119e+02
      vertex 2.005219e+02 3.026625e+01 -1.486232e+02
      vertex 2.060854e+02 3.061864e+01 -1.757923e+02
    endloop
  endfacet
  facet normal 8.972361e-01 4.327522e-01 8.770963e-02
    outer loop
      vertex 1.938812e+02 5.282485e+01 -1.605119e+02
      vertex 2.060854e+02 3.061864e+01 -1.757923e+02
      vertex 1.969973e+02 4.846795e+01 -1.708918e+02
    endloop
  endfacet
  facet normal 6.643614e-01 5.187178e-01 -5.381039e-01
    outer loop
      vertex 1.865756e+02 4.522750e+01 -1.868825e+02
      vertex 1.969973e+02 4.846795e+01 -1.708918e+02
      vertex 2.036067e+02 2.610207e+01 -1.842918e+02
    endloop
  endfacet
  facet normal 9.034913e-01 4.138808e-01 1.113829e-01
    outer loop
      vertex 1.899056e+02 4.583105e+01 -1.203450e+02
      vertex 1.974333e+02 2.899414e+01 -1.188432e+02
      vertex 2.005219e+02 3.026625e+01 -1.486232e+02
    endloop
  endfacet
  facet normal 9.233413e-01 3.522984e-01 1.527310e-01
    outer loop
      vertex 1.899056e+02 4.583105e+01 -1.203450e+02
      vertex 2.005219e+02 3.026625e+01 -1.486232e+02
      vertex 1.938812e+02 5.282485e+01 -1.605119e+02
    endloop
  endfacet
  facet normal 8.973361e-01 4.261911e-01 1.146693e-01
    outer loop
      vertex 1.865263e+02 4.455290e+01 -9.131860e+01
      vertex 1.941383e+02 2.800420e+01 -8.937950e+01
      vertex 1.974333e+02 2.899414e+01 -1.188432e+02
    endloop
  endfacet
  facet normal 9.018117e-01 4.141865e-01 1.232287e-01
    outer loop
      vertex 1.865263e+02 4.455290e+01 -9.131860e+01
      vertex 1.974333e+02 2.899414e+01 -1.188432e+02
      vertex 1.899056e+02 4.583105e+01 -1.203450e+02
    endloop
  endfacet
  facet normal 9.273899e-01 3.482776e-01 1.365672e-01
    outer loop
      vertex 1.821741e+02 4.394067e+01 -4.877539e+01
      vertex 1.906710e+02 2.602223e+01 -6.077907e+01
      vertex 1.941383e+02 2.800420e+01 -8.937950e+01
    endloop
  endfacet
  facet normal 8.996940e-01 4.253413e-01 9.816016e-02
    outer loop
      vertex 1.821741e+02 4.394067e+01 -4.877539e+01
      vertex 1.941383e+02 2.800420e+01 -8.937950e+01
      vertex 1.865263e+02 4.455290e+01 -9.131860e+01
    endloop
  endfacet
  facet normal 9.222443e-01 3.776305e-01 8.282926e-02
    outer loop
      vertex 1.840322e+02 3.829359e+01 -4.280838e+01
      vertex 1.895760e+02 2.358092e+01 -3.745731e+01
      vertex 1.906710e+02 2.602223e+01 -6.077907e+01
    endloop
  endfacet
  facet normal 9.199167e-01 3.844110e-01 7.733935e-02
    outer loop
      vertex 1.840322e+02 3.829359e+01 -4.280838e+01
      vertex 1.906710e+02 2.602223e+01 -6.077907e+01
      vertex 1.821741e+02 4.394067e+01 -4.877539e+01
    endloop
  endfacet
endsolid SIM_ICUB3_R_UPPERARM
